# FamiTracker text export 0.4.2

# Song information
TITLE           ""
AUTHOR          ""
COPYRIGHT       ""

# Song comment
COMMENT ""

# Global settings
MACHINE         0
FRAMERATE       0
EXPANSION       0
VIBRATO         1
SPLIT           32

# Macros
MACRO       0   0  -1  -1   0 : 8 8 6 6 4 4
MACRO       0   1  -1  -1   0 : 15
MACRO       0   2  -1  -1   0 : 15 15 15 15 15 15 0
MACRO       0   3  -1  -1   0 : 8 6 4 2 0
MACRO       0   4  -1  -1   0 : 8 8 7 7 7 7 6 6 6 6 5 5 5 5 4 4 4 4 3 3 3 3 2 2 2 2 1 1 1 1 0
MACRO       0   5  -1  -1   0 : 8 7 7 6 6 5 5 4 4 3 3 2 2 1 1 0
MACRO       0   6  -1  -1   0 : 8 7 7 6 6 5 5 4 4 3 3 2 2 1 1 0
MACRO       0   7  -1  -1   0 : 8 7 7 6 6 5 5 4 4 4 4 3 3 3 3 2
MACRO       0   8  -1  -1   0 : 15 13 13 11 11 9 9 7 7 5 5 3 3 1 1 0
MACRO       0   9  -1  -1   0 : 15 15 11 11 7 7
MACRO       0  10  -1  -1   0 : 15
MACRO       0  11  -1  -1   0 : 15 15 15 15 15 15 0
MACRO       0  12  -1  -1   0 : 8 6 4 2 0
MACRO       0  13  -1  -1   0 : 8 8 7 7 7 7 6 6 6 6 5 5 5 5 4 4 4 4 3 3 3 3 2 2 2 2 1 1 1 1 0
MACRO       0  14  -1  -1   0 : 8 7 7 6 6 5 5 4 4 3 3 2 2 1 1 0
MACRO       0  15  -1  -1   0 : 15 13 13 11 11 9 9 7 7 5 5 3 3 1 1 0
MACRO       0  16  -1  -1   0 : 15 13 13 11 11 9 9 7 7 7 7 5 5 5 5 3
MACRO       0  17  -1  -1   0 : 15 13 13 11 11 9 9 7 7 7 7 5 5 5 5 3
MACRO       0  18  -1  -1   0 : 0 0 0 0 1 1 3 3 5 5 7 7 9 9 11
MACRO       0  19  -1  -1   0 : 0 0 0 0 1 1 3 3 5 5 7 7 9 9 11
MACRO       0  20  -1  -1   0 : 15 13 13 11 11 9 9 7 7 7 7 5 5 5 5 3
MACRO       0  21  -1  -1   0 : 8 8 6 6 4 4 2 2 0
MACRO       0  22  -1  -1   0 : 13 10 7 4 2 1 0 0
MACRO       0  23  -1  -1   0 : 15 11 7 4 3 2 1 0
MACRO       1   0   0  -1   0 : 0 0 4 4 7 7
MACRO       2   0  -1  -1   0 : 0 24 48 72 96
MACRO       2   1  24  -1   0 : 0 0 0 0 0 0 0 0 0 0 0 0 0 0 0 0 0 0 0 0 0 0 0 0 -2 0 0 0 2 0 0 0
MACRO       2   2  24  -1   0 : 0 0 0 0 0 0 0 0 0 0 0 0 0 0 0 0 0 0 0 0 0 0 0 0 -2 0 0 0 2 0 0 0
MACRO       2   3  24  -1   0 : 0 0 0 0 0 0 0 0 0 0 0 0 0 0 0 0 0 0 0 0 0 0 0 0 -2 0 0 0 2 0 0 0
MACRO       2   4  -1  -1   0 : 0 0 0 0 -2
MACRO       2   5  -1  -1   0 : 16 0 -16
MACRO       2   6  -1  -1   0 : 16 0 0 -4 0 -4 0 -4 0 -4 0
MACRO       4   0  -1  -1   0 : 1 2
MACRO       4   1  -1  -1   0 : 1 0
MACRO       4   2  -1  -1   0 : 2 1
MACRO       4   3  -1  -1   0 : 2 1
MACRO       4   4  -1  -1   0 : 1 2
MACRO       4   5  -1  -1   0 : 1 0
MACRO       4   6  -1  -1   0 : 2 1
MACRO       4   7  -1  -1   0 : 1 2
MACRO       4   8  -1  -1   0 : 1 0

# DPCM samples

# Instruments
INST2A03   0     8  -1  -1  -1   3 "Blong"
INST2A03   1     9  -1   1  -1   4 "Vib-50"
INST2A03   2    10  -1  -1  -1  -1 "tri"
INST2A03   3    11  -1  -1  -1  -1 "short tri"
INST2A03   4    12  -1  -1  -1  -1 "closed hat"
INST2A03   5    13  -1  -1  -1  -1 "crash cym"
INST2A03   6    14  -1  -1  -1  -1 "open hat"
INST2A03   7    15  -1  -1  -1   5 "Strum"
INST2A03   8    16  -1   1  -1   6 "Blong (rel)"
INST2A03   9    17  -1   2  -1   7 "Vib-50 (2)"
INST2A03  10    18  -1  -1  -1  -1 "fadein"
INST2A03  11    19   0  -1  -1  -1 "fadin arp"
INST2A03  12    20  -1   3  -1   8 "Strum (rel)"
INST2A03  13    21  -1   4  -1  -1 "noisything"
INST2A03  14    22  -1  -1  -1  -1 "kicknohi"
INST2A03  15    23  -1  -1  -1  -1 "snarenohi"
INST2A03  16    11  -1   0  -1  -1 "kick tri"
INST2A03  17     8  -1   5  -1   3 "Blong-up"
INST2A03  18    16  -1   6  -1   6 "Blong-up (rel)"

# Tracks

TRACK  64   4 150 "mus_tcrf"
COLUMNS : 1 2 1 1 1

ORDER 00 : 04 00 04 01 00
ORDER 01 : 00 00 00 00 00
ORDER 02 : 01 00 01 00 00
ORDER 03 : 02 00 02 00 00
ORDER 04 : 03 00 03 00 00
ORDER 05 : 06 01 00 00 00
ORDER 06 : 07 02 01 00 00
ORDER 07 : 08 03 02 00 00
ORDER 08 : 09 04 05 02 00
ORDER 09 : 0F 01 00 00 00
ORDER 0A : 07 02 01 00 00
ORDER 0B : 08 05 02 00 00
ORDER 0C : 0A 06 06 02 00
ORDER 0D : 0B 07 07 00 00
ORDER 0E : 0C 08 08 00 00
ORDER 0F : 0D 09 07 00 00
ORDER 10 : 0E 0A 0A 00 00
ORDER 11 : 0B 0B 0B 00 00
ORDER 12 : 10 0C 0C 00 00
ORDER 13 : 11 0D 0D 00 00
ORDER 14 : 12 0E 0E 02 00
ORDER 15 : 0F 01 00 00 00
ORDER 16 : 07 02 01 00 00
ORDER 17 : 08 03 02 00 00
ORDER 18 : 09 04 05 02 00
ORDER 19 : 0F 01 00 00 00
ORDER 1A : 07 02 01 00 00
ORDER 1B : 08 05 02 00 00
ORDER 1C : 13 0F 0F 02 00
ORDER 1D : 00 00 00 00 00
ORDER 1E : 01 00 01 00 00
ORDER 1F : 02 00 02 00 00
ORDER 20 : 14 10 10 03 01

PATTERN 00
ROW 00 : G-2 00 B ... : --- .. . ... ... : G-2 02 F ... : E-# 04 C ... : --- .. . ...
ROW 01 : ... .. . ... : ... .. . ... ... : ... .. . ... : ... .. . ... : ... .. . ...
ROW 02 : ... .. . ... : ... .. . ... ... : ... .. . ... : ... .. . ... : ... .. . ...
ROW 03 : ... .. . ... : ... .. . ... ... : --- .. . ... : ... .. . ... : ... .. . ...
ROW 04 : ... .. . ... : ... .. . ... ... : G-2 03 F ... : E-# 04 4 ... : ... .. . ...
ROW 05 : ... .. . ... : ... .. . ... ... : ... .. . ... : ... .. . ... : ... .. . ...
ROW 06 : ... .. . ... : ... .. . ... ... : ... .. . ... : ... .. . ... : ... .. . ...
ROW 07 : ... .. . ... : ... .. . ... ... : ... .. . ... : ... .. . ... : ... .. . ...
ROW 08 : C-3 00 B ... : ... .. . ... ... : ... .. . ... : 9-# 0E 6 ... : ... .. . ...
ROW 09 : ... .. . ... : ... .. . ... ... : ... .. . ... : ... .. . ... : ... .. . ...
ROW 0A : ... .. . ... : ... .. . ... ... : ... .. . ... : ... .. . ... : ... .. . ...
ROW 0B : ... .. . ... : ... .. . ... ... : ... .. . ... : ... .. . ... : ... .. . ...
ROW 0C : ... .. . ... : ... .. . ... ... : E-2 02 F ... : E-# 04 4 ... : ... .. . ...
ROW 0D : ... .. . ... : ... .. . ... ... : ... .. . ... : ... .. . ... : ... .. . ...
ROW 0E : ... .. . ... : ... .. . ... ... : ... .. . ... : ... .. . ... : ... .. . ...
ROW 0F : ... .. . ... : ... .. . ... ... : ... .. . ... : ... .. . ... : ... .. . ...
ROW 10 : D-3 00 B ... : ... .. . ... ... : ... .. . ... : E-# 04 C ... : ... .. . ...
ROW 11 : ... .. . ... : ... .. . ... ... : ... .. . ... : ... .. . ... : ... .. . ...
ROW 12 : ... .. . ... : ... .. . ... ... : ... .. . ... : ... .. . ... : ... .. . ...
ROW 13 : ... .. . ... : ... .. . ... ... : ... .. . ... : ... .. . ... : ... .. . ...
ROW 14 : ... .. . ... : ... .. . ... ... : G-2 02 F ... : E-# 04 4 ... : ... .. . ...
ROW 15 : ... .. . ... : ... .. . ... ... : ... .. . ... : ... .. . ... : ... .. . ...
ROW 16 : E-3 00 B ... : ... .. . ... ... : ... .. . ... : ... .. . ... : ... .. . ...
ROW 17 : ... .. . ... : ... .. . ... ... : ... .. . ... : ... .. . ... : ... .. . ...
ROW 18 : ... .. . ... : ... .. . ... ... : ... .. . ... : C-# 06 8 ... : ... .. . ...
ROW 19 : ... .. . ... : ... .. . ... ... : ... .. . ... : ... .. . ... : ... .. . ...
ROW 1A : ... .. . ... : ... .. . ... ... : ... .. . ... : ... .. . ... : ... .. . ...
ROW 1B : ... .. . ... : ... .. . ... ... : ... .. . ... : ... .. . ... : ... .. . ...
ROW 1C : G-2 00 B ... : ... .. . ... ... : E-2 02 F ... : E-# 04 4 ... : ... .. . ...
ROW 1D : ... .. . ... : ... .. . ... ... : ... .. . ... : ... .. . ... : ... .. . ...
ROW 1E : ... .. . ... : ... .. . ... ... : ... .. . ... : ... .. . ... : ... .. . ...
ROW 1F : ... .. . ... : ... .. . ... ... : ... .. . ... : ... .. . ... : ... .. . ...
ROW 20 : G#2 00 B ... : ... .. . ... ... : G#2 02 F ... : E-# 04 C ... : ... .. . ...
ROW 21 : ... .. . ... : ... .. . ... ... : ... .. . ... : ... .. . ... : ... .. . ...
ROW 22 : ... .. . ... : ... .. . ... ... : ... .. . ... : ... .. . ... : ... .. . ...
ROW 23 : ... .. . ... : ... .. . ... ... : --- .. . ... : ... .. . ... : ... .. . ...
ROW 24 : ... .. . ... : ... .. . ... ... : G#2 03 F ... : E-# 04 4 ... : ... .. . ...
ROW 25 : ... .. . ... : ... .. . ... ... : ... .. . ... : ... .. . ... : ... .. . ...
ROW 26 : ... .. . ... : ... .. . ... ... : ... .. . ... : ... .. . ... : ... .. . ...
ROW 27 : ... .. . ... : ... .. . ... ... : ... .. . ... : ... .. . ... : ... .. . ...
ROW 28 : C-3 00 B ... : ... .. . ... ... : ... .. . ... : 9-# 0E 6 ... : ... .. . ...
ROW 29 : ... .. . ... : ... .. . ... ... : ... .. . ... : ... .. . ... : ... .. . ...
ROW 2A : ... .. . ... : ... .. . ... ... : ... .. . ... : ... .. . ... : ... .. . ...
ROW 2B : ... .. . ... : ... .. . ... ... : ... .. . ... : ... .. . ... : ... .. . ...
ROW 2C : ... .. . ... : ... .. . ... ... : E-2 02 F ... : E-# 04 4 ... : ... .. . ...
ROW 2D : ... .. . ... : ... .. . ... ... : ... .. . ... : ... .. . ... : ... .. . ...
ROW 2E : ... .. . ... : ... .. . ... ... : ... .. . ... : ... .. . ... : ... .. . ...
ROW 2F : ... .. . ... : ... .. . ... ... : ... .. . ... : ... .. . ... : ... .. . ...
ROW 30 : D-3 00 B ... : ... .. . ... ... : ... .. . ... : E-# 04 C ... : ... .. . ...
ROW 31 : ... .. . ... : ... .. . ... ... : ... .. . ... : ... .. . ... : ... .. . ...
ROW 32 : ... .. . ... : ... .. . ... ... : ... .. . ... : ... .. . ... : ... .. . ...
ROW 33 : ... .. . ... : ... .. . ... ... : ... .. . ... : ... .. . ... : ... .. . ...
ROW 34 : ... .. . ... : ... .. . ... ... : G#2 02 F ... : E-# 04 4 ... : ... .. . ...
ROW 35 : ... .. . ... : ... .. . ... ... : ... .. . ... : ... .. . ... : ... .. . ...
ROW 36 : E-3 00 B ... : ... .. . ... ... : ... .. . ... : ... .. . ... : ... .. . ...
ROW 37 : ... .. . ... : ... .. . ... ... : ... .. . ... : ... .. . ... : ... .. . ...
ROW 38 : ... .. . ... : ... .. . ... ... : ... .. . ... : C-# 06 8 ... : ... .. . ...
ROW 39 : ... .. . ... : ... .. . ... ... : ... .. . ... : ... .. . ... : ... .. . ...
ROW 3A : ... .. . ... : ... .. . ... ... : ... .. . ... : ... .. . ... : ... .. . ...
ROW 3B : ... .. . ... : ... .. . ... ... : ... .. . ... : ... .. . ... : ... .. . ...
ROW 3C : G#2 00 B ... : ... .. . ... ... : E-2 02 F ... : E-# 04 4 ... : ... .. . ...
ROW 3D : ... .. . ... : ... .. . ... ... : ... .. . ... : ... .. . ... : ... .. . ...
ROW 3E : ... .. . ... : ... .. . ... ... : ... .. . ... : ... .. . ... : ... .. . ...
ROW 3F : ... .. . ... : ... .. . ... ... : ... .. . ... : ... .. . ... : ... .. . ...

PATTERN 01
ROW 00 : A-2 00 B ... : --- .. . G01 400 : A-2 02 F ... : E-# 04 C ... : --- 09 . ...
ROW 01 : ... .. . ... : ... .. . ... ... : ... .. . ... : ... .. . ... : ... .. . ...
ROW 02 : ... .. . ... : ... .. . ... ... : ... .. . ... : ... .. . ... : ... .. . ...
ROW 03 : ... .. . ... : ... .. . ... ... : --- .. . ... : ... .. . ... : ... .. . ...
ROW 04 : ... .. . ... : G-3 09 E G01 ... : A-2 03 F ... : E-# 04 4 ... : ... .. . ...
ROW 05 : ... .. . ... : ... .. . ... ... : ... .. . ... : ... .. . ... : ... .. . ...
ROW 06 : ... .. . ... : ... .. . ... ... : ... .. . ... : ... .. . ... : ... .. . ...
ROW 07 : ... .. . ... : ... .. . ... ... : ... .. . ... : ... .. . ... : ... .. . ...
ROW 08 : C-3 00 B ... : C-4 09 E G01 ... : ... .. . ... : 9-# 0E 6 ... : ... .. . ...
ROW 09 : ... .. . ... : ... .. . ... ... : ... .. . ... : ... .. . ... : ... .. . ...
ROW 0A : ... .. . ... : ... .. . ... ... : ... .. . ... : ... .. . ... : ... .. . ...
ROW 0B : ... .. . ... : ... .. . ... ... : ... .. . ... : ... .. . ... : ... .. . ...
ROW 0C : ... .. . ... : ... .. 4 G01 ... : E-2 02 F ... : E-# 04 4 ... : ... .. . ...
ROW 0D : ... .. . ... : --- 0C 0 G01 ... : ... .. . ... : ... .. . ... : ... .. . ...
ROW 0E : ... .. . ... : ... .. . ... ... : ... .. . ... : ... .. . ... : ... .. . ...
ROW 0F : ... .. . ... : ... .. . ... ... : ... .. . ... : ... .. . ... : ... .. . ...
ROW 10 : D-3 00 B ... : D-4 09 E G01 ... : ... .. . ... : E-# 04 C ... : ... .. . ...
ROW 11 : ... .. . ... : ... .. . ... ... : ... .. . ... : ... .. . ... : ... .. . ...
ROW 12 : ... .. . ... : ... .. . ... ... : ... .. . ... : ... .. . ... : ... .. . ...
ROW 13 : ... .. . ... : ... .. . ... ... : ... .. . ... : ... .. . ... : ... .. . ...
ROW 14 : ... .. . ... : ... .. . ... ... : A-2 02 F ... : E-# 04 4 ... : ... .. . ...
ROW 15 : ... .. . ... : ... .. . ... ... : ... .. . ... : ... .. . ... : ... .. . ...
ROW 16 : E-3 00 B ... : E-4 09 E G01 ... : ... .. . ... : ... .. . ... : ... .. . ...
ROW 17 : ... .. . ... : ... .. . ... ... : ... .. . ... : ... .. . ... : ... .. . ...
ROW 18 : ... .. . ... : ... .. . ... ... : ... .. . ... : E-# 04 C ... : ... .. . ...
ROW 19 : ... .. . ... : ... .. . ... ... : ... .. . ... : ... .. . ... : ... .. . ...
ROW 1A : ... .. . ... : ... .. . ... ... : ... .. . ... : ... .. . ... : ... .. . ...
ROW 1B : ... .. . ... : ... .. . ... ... : ... .. . ... : ... .. . ... : ... .. . ...
ROW 1C : A-2 00 B ... : G-3 09 E G01 ... : E-2 02 F ... : E-# 04 4 ... : ... .. . ...
ROW 1D : ... .. . ... : ... .. . ... ... : ... .. . ... : ... .. . ... : ... .. . ...
ROW 1E : ... .. . ... : ... .. . ... ... : ... .. . ... : ... .. . ... : ... .. . ...
ROW 1F : ... .. . ... : ... .. 4 G01 ... : ... .. . ... : ... .. . ... : ... .. . ...
ROW 20 : A#2 00 B ... : --- 0C 0 G01 ... : A#2 02 F ... : E-# 04 C ... : ... .. . ...
ROW 21 : ... .. . ... : ... .. . ... ... : ... .. . ... : ... .. . ... : ... .. . ...
ROW 22 : ... .. . ... : ... .. . ... ... : ... .. . ... : ... .. . ... : ... .. . ...
ROW 23 : ... .. . ... : ... .. . ... ... : --- .. . ... : ... .. . ... : ... .. . ...
ROW 24 : ... .. . ... : G#3 09 E G01 ... : A#2 03 F ... : E-# 04 4 ... : ... .. . ...
ROW 25 : ... .. . ... : ... .. . ... ... : ... .. . ... : ... .. . ... : ... .. . ...
ROW 26 : ... .. . ... : ... .. . ... ... : ... .. . ... : ... .. . ... : ... .. . ...
ROW 27 : ... .. . ... : ... .. . ... ... : ... .. . ... : ... .. . ... : ... .. . ...
ROW 28 : D-3 00 B ... : C-4 09 E G01 ... : ... .. . ... : 9-# 0E 6 ... : ... .. . ...
ROW 29 : ... .. . ... : ... .. . ... ... : ... .. . ... : ... .. . ... : ... .. . ...
ROW 2A : ... .. . ... : ... .. . ... ... : ... .. . ... : ... .. . ... : ... .. . ...
ROW 2B : ... .. . ... : ... .. . ... ... : ... .. . ... : ... .. . ... : ... .. . ...
ROW 2C : ... .. . ... : D-4 09 E G01 ... : F-2 02 F ... : E-# 04 4 ... : ... .. . ...
ROW 2D : ... .. . ... : ... .. . ... ... : ... .. . ... : ... .. . ... : ... .. . ...
ROW 2E : ... .. . ... : ... .. . ... ... : ... .. . ... : ... .. . ... : ... .. . ...
ROW 2F : ... .. . ... : ... .. . ... ... : ... .. . ... : ... .. . ... : ... .. . ...
ROW 30 : E-3 00 B ... : ... .. . ... ... : ... .. . ... : E-# 04 C ... : ... .. . ...
ROW 31 : ... .. . ... : ... .. . ... ... : ... .. . ... : ... .. . ... : ... .. . ...
ROW 32 : ... .. . ... : ... .. . ... ... : ... .. . ... : ... .. . ... : ... .. . ...
ROW 33 : ... .. . ... : ... .. . ... ... : ... .. . ... : ... .. . ... : ... .. . ...
ROW 34 : ... .. . ... : E-4 09 E G01 ... : A#2 02 F ... : E-# 04 C ... : ... .. . ...
ROW 35 : ... .. . ... : ... .. . ... ... : ... .. . ... : ... .. . ... : ... .. . ...
ROW 36 : F-3 00 B ... : ... .. . ... ... : ... .. . ... : B-# 04 4 ... : ... .. . ...
ROW 37 : ... .. . ... : ... .. . ... ... : ... .. . ... : ... .. . ... : ... .. . ...
ROW 38 : ... .. . ... : ... .. . ... ... : ... .. . ... : F-# 04 8 ... : ... .. . ...
ROW 39 : ... .. . ... : ... .. . ... ... : ... .. . ... : ... .. . ... : ... .. . ...
ROW 3A : ... .. . ... : ... .. . ... ... : ... .. . ... : F-# 06 8 ... : ... .. . ...
ROW 3B : ... .. . ... : ... .. . G01 486 : ... .. . ... : ... .. . ... : ... .. . ...
ROW 3C : A#2 00 B ... : ... .. . ... ... : F-2 02 F ... : E-# 06 8 ... : ... .. . ...
ROW 3D : ... .. . ... : ... .. . ... ... : ... .. . ... : ... .. . ... : ... .. . ...
ROW 3E : ... .. . ... : ... .. . ... ... : ... .. . ... : C-# 06 8 ... : ... .. . ...
ROW 3F : ... .. . ... : ... .. . ... ... : ... .. . ... : ... .. . ... : ... .. 0 B01

PATTERN 02
ROW 00 : A-2 00 B ... : ... .. 4 G01 ... : A-2 02 F ... : E-# 04 C ... : --- .. . ...
ROW 01 : ... .. . ... : --- .. 0 G01 400 : ... .. . ... : ... .. . ... : ... .. . ...
ROW 02 : ... .. . ... : ... .. . ... ... : ... .. . ... : ... .. . ... : ... .. . ...
ROW 03 : ... .. . ... : ... .. . ... ... : --- .. . ... : ... .. . ... : ... .. . ...
ROW 04 : ... .. . ... : A-3 09 E G01 ... : A-2 03 F ... : E-# 04 4 ... : ... .. . ...
ROW 05 : ... .. . ... : ... .. . ... ... : ... .. . ... : ... .. . ... : ... .. . ...
ROW 06 : ... .. . ... : ... .. . ... ... : ... .. . ... : ... .. . ... : ... .. . ...
ROW 07 : ... .. . ... : ... .. . ... ... : ... .. . ... : ... .. . ... : ... .. . ...
ROW 08 : C-3 00 B ... : C-4 09 E G01 ... : ... .. . ... : 9-# 0E 6 ... : ... .. . ...
ROW 09 : ... .. . ... : ... .. . ... ... : ... .. . ... : ... .. . ... : ... .. . ...
ROW 0A : ... .. . ... : ... .. . ... ... : ... .. . ... : ... .. . ... : ... .. . ...
ROW 0B : ... .. . ... : ... .. . ... ... : ... .. . ... : ... .. . ... : ... .. . ...
ROW 0C : ... .. . ... : ... .. 4 G01 ... : F-2 02 F ... : E-# 04 4 ... : ... .. . ...
ROW 0D : ... .. . ... : --- .. 0 G01 ... : ... .. . ... : ... .. . ... : ... .. . ...
ROW 0E : ... .. . ... : ... .. . ... ... : ... .. . ... : ... .. . ... : ... .. . ...
ROW 0F : ... .. . ... : ... .. . ... ... : ... .. . ... : ... .. . ... : ... .. . ...
ROW 10 : D-3 00 B ... : D-4 09 E G01 ... : ... .. . ... : E-# 04 C ... : ... .. . ...
ROW 11 : ... .. . ... : ... .. . ... ... : ... .. . ... : ... .. . ... : ... .. . ...
ROW 12 : ... .. . ... : ... .. . ... ... : ... .. . ... : ... .. . ... : ... .. . ...
ROW 13 : ... .. . ... : ... .. . ... ... : ... .. . ... : ... .. . ... : ... .. . ...
ROW 14 : ... .. . ... : ... .. . ... ... : A-2 02 F ... : E-# 04 4 ... : ... .. . ...
ROW 15 : ... .. . ... : ... .. . ... ... : ... .. . ... : ... .. . ... : ... .. . ...
ROW 16 : F-3 00 B ... : E-4 09 E G01 ... : ... .. . ... : ... .. . ... : ... .. . ...
ROW 17 : ... .. . ... : ... .. . ... ... : ... .. . ... : ... .. . ... : ... .. . ...
ROW 18 : ... .. . ... : ... .. . ... ... : ... .. . ... : C-# 06 8 ... : ... .. . ...
ROW 19 : ... .. . ... : ... .. . ... ... : ... .. . ... : ... .. . ... : ... .. . ...
ROW 1A : ... .. . ... : ... .. . ... ... : ... .. . ... : ... .. . ... : ... .. . ...
ROW 1B : ... .. . ... : ... .. . ... ... : ... .. . ... : ... .. . ... : ... .. . ...
ROW 1C : A-2 00 B ... : A#3 09 E G01 ... : F-2 02 F ... : E-# 04 4 ... : ... .. . ...
ROW 1D : ... .. . ... : ... .. . ... ... : ... .. . ... : ... .. . ... : ... .. . ...
ROW 1E : ... .. . ... : ... .. . ... ... : ... .. . ... : ... .. . ... : ... .. . ...
ROW 1F : ... .. . ... : ... .. . ... ... : ... .. . ... : ... .. . ... : ... .. . ...
ROW 20 : G#2 00 B ... : G-4 09 E G01 ... : G#2 02 F ... : E-# 04 C ... : ... .. . ...
ROW 21 : ... .. . ... : ... .. . ... ... : ... .. . ... : ... .. . ... : ... .. . ...
ROW 22 : ... .. . ... : ... .. . ... ... : ... .. . ... : ... .. . ... : ... .. . ...
ROW 23 : ... .. . ... : ... .. . ... ... : --- .. . ... : ... .. . ... : ... .. . ...
ROW 24 : ... .. . ... : ... .. . ... ... : G#2 03 F ... : E-# 04 4 ... : ... .. . ...
ROW 25 : ... .. . ... : ... .. . ... ... : ... .. . ... : ... .. . ... : ... .. . ...
ROW 26 : ... .. . ... : ... .. . ... ... : ... .. . ... : ... .. . ... : ... .. . ...
ROW 27 : ... .. . ... : ... .. . ... ... : ... .. . ... : ... .. . ... : ... .. . ...
ROW 28 : C-3 00 B ... : F-4 09 E G01 ... : ... .. . ... : 9-# 0E 6 ... : ... .. . ...
ROW 29 : ... .. . ... : ... .. . ... ... : ... .. . ... : ... .. . ... : ... .. . ...
ROW 2A : ... .. . ... : ... .. . ... ... : ... .. . ... : ... .. . ... : ... .. . ...
ROW 2B : ... .. . ... : ... .. . ... ... : ... .. . ... : ... .. . ... : ... .. . ...
ROW 2C : ... .. . ... : E-4 09 E G01 ... : F-2 02 F ... : E-# 04 4 ... : ... .. . ...
ROW 2D : ... .. . ... : ... .. . ... ... : ... .. . ... : ... .. . ... : ... .. . ...
ROW 2E : ... .. . ... : ... .. . ... ... : ... .. . ... : ... .. . ... : ... .. . ...
ROW 2F : ... .. . ... : ... .. . ... ... : ... .. . ... : ... .. . ... : ... .. . ...
ROW 30 : D-3 00 B ... : ... .. . ... ... : ... .. . ... : E-# 04 C ... : ... .. . ...
ROW 31 : ... .. . ... : ... .. . ... ... : ... .. . ... : ... .. . ... : ... .. . ...
ROW 32 : ... .. . ... : ... .. . ... ... : ... .. . ... : ... .. . ... : ... .. . ...
ROW 33 : ... .. . ... : ... .. . G01 486 : ... .. . ... : ... .. . ... : ... .. . ...
ROW 34 : ... .. . ... : ... .. . ... ... : G#2 02 F ... : F-# 04 C ... : ... .. . ...
ROW 35 : ... .. . ... : ... .. . ... ... : ... .. . ... : ... .. . ... : ... .. . ...
ROW 36 : F-3 00 B ... : ... .. 4 G01 ... : ... .. . ... : F-# 04 4 ... : ... .. . ...
ROW 37 : ... .. . ... : --- .. 0 G01 400 : ... .. . ... : ... .. . ... : ... .. . ...
ROW 38 : ... .. . ... : D-4 09 E G01 ... : ... .. . ... : F-# 04 8 ... : ... .. . ...
ROW 39 : ... .. . ... : ... .. . ... ... : ... .. . ... : ... .. . ... : ... .. . ...
ROW 3A : ... .. . ... : ... .. . ... ... : ... .. . ... : F-# 06 8 ... : ... .. . ...
ROW 3B : ... .. . ... : ... .. . ... ... : ... .. . ... : ... .. . ... : ... .. . ...
ROW 3C : G#2 00 B ... : D#4 09 E G01 ... : F-2 02 F ... : E-# 06 8 ... : ... .. . ...
ROW 3D : ... .. . ... : ... .. . ... ... : ... .. . ... : ... .. . ... : ... .. . ...
ROW 3E : ... .. . ... : ... .. . ... ... : ... .. . ... : C-# 06 8 ... : ... .. . ...
ROW 3F : ... .. . ... : ... .. . ... ... : ... .. . ... : ... .. . ... : ... .. . C00

PATTERN 03
ROW 00 : G-2 00 B ... : E-4 09 E G01 ... : G-2 02 F ... : E-# 04 C ... : ... .. . ...
ROW 01 : ... .. . ... : ... .. . ... ... : ... .. . ... : ... .. . ... : ... .. . ...
ROW 02 : ... .. . ... : ... .. . ... ... : ... .. . ... : ... .. . ... : ... .. . ...
ROW 03 : ... .. . ... : ... .. . ... ... : --- .. . ... : ... .. . ... : ... .. . ...
ROW 04 : ... .. . ... : C-4 09 E G01 ... : G-2 03 F ... : E-# 04 4 ... : ... .. . ...
ROW 05 : ... .. . ... : ... .. . ... ... : ... .. . ... : ... .. . ... : ... .. . ...
ROW 06 : ... .. . ... : ... .. . ... ... : ... .. . ... : ... .. . ... : ... .. . ...
ROW 07 : ... .. . ... : ... .. . ... ... : ... .. . ... : ... .. . ... : ... .. . ...
ROW 08 : C-3 00 B ... : A-3 09 E G01 ... : ... .. . ... : 9-# 0E 6 ... : ... .. . ...
ROW 09 : ... .. . ... : ... .. . ... ... : ... .. . ... : ... .. . ... : ... .. . ...
ROW 0A : ... .. . ... : ... .. . ... ... : ... .. . ... : ... .. . ... : ... .. . ...
ROW 0B : ... .. . ... : ... .. . ... ... : ... .. . ... : ... .. . ... : ... .. . ...
ROW 0C : ... .. . ... : C-4 09 E G01 ... : E-2 02 F ... : E-# 04 4 ... : ... .. . ...
ROW 0D : ... .. . ... : ... .. . ... ... : ... .. . ... : ... .. . ... : ... .. . ...
ROW 0E : ... .. . ... : ... .. . G01 485 : ... .. . ... : ... .. . ... : ... .. . ...
ROW 0F : ... .. . ... : ... .. . ... ... : ... .. . ... : ... .. . ... : ... .. . ...
ROW 10 : D-3 00 B ... : ... .. . ... ... : ... .. . ... : E-# 04 C ... : ... .. . ...
ROW 11 : ... .. . ... : ... .. . ... ... : ... .. . ... : ... .. . ... : ... .. . ...
ROW 12 : ... .. . ... : ... .. . ... ... : ... .. . ... : ... .. . ... : ... .. . ...
ROW 13 : ... .. . ... : ... .. 4 G01 ... : ... .. . ... : ... .. . ... : ... .. . ...
ROW 14 : ... .. . ... : C-4 09 E G01 400 : G-2 02 F ... : E-# 04 4 ... : ... .. . ...
ROW 15 : ... .. . ... : ... .. . ... ... : ... .. . ... : ... .. . ... : ... .. . ...
ROW 16 : E-3 00 B ... : ... .. . ... ... : ... .. . ... : ... .. . ... : ... .. . ...
ROW 17 : ... .. . ... : ... .. . ... ... : ... .. . ... : ... .. . ... : ... .. . ...
ROW 18 : ... .. . ... : D-4 09 E G01 ... : ... .. . ... : C-# 06 8 ... : ... .. . ...
ROW 19 : ... .. . ... : ... .. . ... ... : ... .. . ... : ... .. . ... : ... .. . ...
ROW 1A : ... .. . ... : ... .. . ... ... : ... .. . ... : ... .. . ... : ... .. . ...
ROW 1B : ... .. . ... : ... .. . ... ... : ... .. . ... : ... .. . ... : ... .. . ...
ROW 1C : G-2 00 B ... : C-4 09 E G01 ... : E-2 02 F ... : E-# 04 4 ... : ... .. . ...
ROW 1D : ... .. . ... : ... .. . ... ... : ... .. . ... : ... .. . ... : ... .. . ...
ROW 1E : ... .. . ... : ... .. . ... ... : ... .. . ... : ... .. . ... : ... .. . ...
ROW 1F : ... .. . ... : ... .. . ... ... : ... .. . ... : ... .. . ... : ... .. . ...
ROW 20 : F-2 00 B ... : D#4 09 E G01 ... : D-2 02 F ... : E-# 04 C ... : ... .. . ...
ROW 21 : ... .. . ... : ... .. . ... ... : ... .. . ... : ... .. . ... : ... .. . ...
ROW 22 : ... .. . ... : ... .. . ... ... : ... .. . ... : ... .. . ... : ... .. . ...
ROW 23 : ... .. . ... : ... .. . ... ... : --- .. . ... : ... .. . ... : ... .. . ...
ROW 24 : ... .. . ... : C-4 09 E G01 ... : D-2 03 F ... : E-# 04 4 ... : ... .. . ...
ROW 25 : ... .. . ... : ... .. . ... ... : ... .. . ... : ... .. . ... : ... .. . ...
ROW 26 : ... .. . ... : ... .. . ... ... : ... .. . ... : ... .. . ... : ... .. . ...
ROW 27 : ... .. . ... : ... .. . ... ... : ... .. . ... : ... .. . ... : ... .. . ...
ROW 28 : C-3 00 B ... : G#3 09 E G01 ... : ... .. . ... : 9-# 0E 6 ... : ... .. . ...
ROW 29 : ... .. . ... : ... .. . ... ... : ... .. . ... : ... .. . ... : ... .. . ...
ROW 2A : ... .. . ... : ... .. . ... ... : ... .. . ... : ... .. . ... : ... .. . ...
ROW 2B : ... .. . ... : ... .. . ... ... : ... .. . ... : ... .. . ... : ... .. . ...
ROW 2C : ... .. . ... : C-4 09 E G01 ... : G-2 02 F ... : E-# 04 4 ... : ... .. . ...
ROW 2D : ... .. . ... : ... .. . ... ... : ... .. . ... : ... .. . ... : ... .. . ...
ROW 2E : ... .. . ... : ... .. . G01 485 : ... .. . ... : ... .. . ... : ... .. . ...
ROW 2F : ... .. . ... : ... .. . ... ... : ... .. . ... : ... .. . ... : ... .. . ...
ROW 30 : G-3 00 B ... : ... .. . ... ... : ... .. . ... : E-# 04 C ... : ... .. . ...
ROW 31 : ... .. . ... : ... .. . ... ... : ... .. . ... : ... .. . ... : ... .. . ...
ROW 32 : ... .. . ... : ... .. . ... ... : ... .. . ... : ... .. . ... : ... .. . ...
ROW 33 : ... .. . ... : ... .. 4 G01 ... : ... .. . ... : ... .. . ... : ... .. . ...
ROW 34 : ... .. . ... : G#3 09 E G01 400 : A-2 02 F ... : E-# 04 4 ... : ... .. . ...
ROW 35 : ... .. . ... : ... .. . ... ... : ... .. . ... : ... .. . ... : ... .. . ...
ROW 36 : F-3 00 B ... : ... .. . ... ... : ... .. . ... : ... .. . ... : ... .. . ...
ROW 37 : ... .. . ... : ... .. . ... ... : ... .. . ... : ... .. . ... : ... .. . ...
ROW 38 : ... .. . ... : A#3 09 E G01 ... : ... .. . ... : C-# 06 8 ... : ... .. . ...
ROW 39 : ... .. . ... : ... .. . ... ... : ... .. . ... : ... .. . ... : ... .. . ...
ROW 3A : ... .. . ... : ... .. . ... ... : ... .. . ... : ... .. . ... : ... .. . ...
ROW 3B : ... .. . ... : ... .. . ... ... : ... .. . ... : ... .. . ... : ... .. . ...
ROW 3C : E-3 00 B ... : G#3 09 E G01 ... : B-2 02 F ... : E-# 04 4 ... : ... .. . ...
ROW 3D : ... .. . ... : ... .. . ... ... : ... .. . ... : ... .. . ... : ... .. . ...
ROW 3E : ... .. . ... : ... .. . ... ... : ... .. . ... : ... .. . ... : ... .. . ...
ROW 3F : ... .. . ... : ... .. . ... ... : ... .. . ... : ... .. . B01 : ... .. . ...

PATTERN 04
ROW 00 : --- .. . ... : G-3 09 E G01 ... : --- .. . ... : --- .. . ... : ... .. . ...
ROW 01 : ... .. . ... : ... .. . ... ... : ... .. . ... : ... .. . ... : ... .. . ...
ROW 02 : ... .. . ... : ... .. . ... ... : ... .. . ... : ... .. . ... : ... .. . ...
ROW 03 : ... .. . ... : ... .. . ... ... : ... .. . ... : ... .. . ... : ... .. . ...
ROW 04 : ... .. . ... : ... .. . ... ... : ... .. . ... : ... .. . ... : ... .. . ...
ROW 05 : ... .. . ... : ... .. . ... ... : ... .. . ... : ... .. . ... : ... .. . ...
ROW 06 : ... .. . ... : ... .. 4 G01 ... : ... .. . ... : ... .. . ... : ... .. . ...
ROW 07 : ... .. . ... : --- .. 0 G01 ... : ... .. . ... : ... .. . ... : ... .. . ...
ROW 08 : ... .. . ... : G-4 09 E G01 ... : ... .. . ... : ... .. . ... : ... .. . ...
ROW 09 : ... .. . ... : ... .. . ... ... : ... .. . ... : ... .. . ... : ... .. . ...
ROW 0A : ... .. . ... : ... .. . ... ... : ... .. . ... : ... .. . ... : ... .. . ...
ROW 0B : ... .. . ... : ... .. . ... ... : ... .. . ... : ... .. . ... : ... .. . ...
ROW 0C : ... .. . ... : ... .. . ... ... : ... .. . ... : ... .. . ... : ... .. . ...
ROW 0D : ... .. . ... : ... .. . G01 485 : ... .. . ... : ... .. . ... : ... .. . ...
ROW 0E : ... .. . ... : ... .. 4 G01 ... : ... .. . ... : ... .. . ... : ... .. . ...
ROW 0F : ... .. . ... : --- .. 0 G01 400 : ... .. . ... : ... .. . ... : ... .. . ...
ROW 10 : ... .. . ... : F-4 09 E G01 ... : ... .. . ... : ... .. . ... : ... .. . ...
ROW 11 : ... .. . ... : ... .. . ... ... : ... .. . ... : ... .. . ... : ... .. . ...
ROW 12 : ... .. . ... : ... .. . ... ... : ... .. . ... : ... .. . ... : ... .. . ...
ROW 13 : ... .. . ... : ... .. . ... ... : ... .. . ... : ... .. . ... : ... .. . ...
ROW 14 : ... .. . ... : E-4 09 E G01 ... : ... .. . ... : ... .. . ... : ... .. . ...
ROW 15 : ... .. . ... : ... .. . ... ... : ... .. . ... : ... .. . ... : ... .. . ...
ROW 16 : ... .. . ... : ... .. . ... ... : ... .. . ... : ... .. . ... : ... .. . ...
ROW 17 : ... .. . ... : ... .. . ... ... : ... .. . ... : ... .. . ... : ... .. . ...
ROW 18 : ... .. . ... : ... .. . ... ... : ... .. . ... : ... .. . ... : ... .. . ...
ROW 19 : ... .. . ... : ... .. . G01 485 : ... .. . ... : ... .. . ... : ... .. . ...
ROW 1A : ... .. . ... : ... .. . ... ... : ... .. . ... : ... .. . ... : ... .. . ...
ROW 1B : ... .. . ... : ... .. 4 G01 ... : ... .. . ... : ... .. . ... : ... .. . ...
ROW 1C : ... .. . ... : D-4 09 E G01 400 : ... .. . ... : ... .. . ... : ... .. . ...
ROW 1D : ... .. . ... : ... .. . ... ... : ... .. . ... : ... .. . ... : ... .. . ...
ROW 1E : ... .. . ... : ... .. . ... ... : ... .. . ... : ... .. . ... : ... .. . ...
ROW 1F : ... .. . ... : ... .. . ... ... : ... .. . ... : ... .. . ... : ... .. . ...
ROW 20 : ... .. . ... : ... .. . ... ... : ... .. . ... : ... .. . ... : ... .. . ...
ROW 21 : ... .. . ... : ... .. . G01 485 : ... .. . ... : ... .. . ... : ... .. . ...
ROW 22 : ... .. . ... : ... .. . ... ... : ... .. . ... : ... .. . ... : ... .. . ...
ROW 23 : ... .. . ... : ... .. 4 G01 ... : ... .. . ... : ... .. . ... : ... .. . ...
ROW 24 : ... .. . ... : E-4 09 E G01 400 : ... .. . ... : ... .. . ... : ... .. . ...
ROW 25 : ... .. . ... : ... .. . ... ... : ... .. . ... : ... .. . ... : ... .. . ...
ROW 26 : ... .. . ... : ... .. . ... ... : ... .. . ... : ... .. . ... : ... .. . ...
ROW 27 : ... .. . ... : ... .. . ... ... : ... .. . ... : ... .. . ... : ... .. . ...
ROW 28 : ... .. . ... : C-4 09 E G01 ... : ... .. . ... : ... .. . ... : ... .. . ...
ROW 29 : ... .. . ... : ... .. . ... ... : ... .. . ... : ... .. . ... : ... .. . ...
ROW 2A : ... .. . ... : ... .. . ... ... : ... .. . ... : ... .. . ... : ... .. . ...
ROW 2B : ... .. . ... : ... .. . ... ... : ... .. . ... : ... .. . ... : ... .. . ...
ROW 2C : ... .. . ... : G#3 09 E G01 ... : ... .. . ... : ... .. . ... : ... .. . ...
ROW 2D : ... .. . ... : ... .. . ... ... : ... .. . ... : ... .. . ... : ... .. . ...
ROW 2E : ... .. . ... : ... .. . ... ... : ... .. . ... : ... .. . ... : ... .. . ...
ROW 2F : ... .. . ... : ... .. . ... ... : ... .. . ... : ... .. . ... : ... .. . ...
ROW 30 : ... .. . ... : ... .. . ... ... : ... .. . ... : ... .. . ... : ... .. . ...
ROW 31 : ... .. . ... : ... .. . ... ... : ... .. . ... : ... .. . ... : ... .. . ...
ROW 32 : ... .. . ... : ... .. . ... ... : ... .. . ... : ... .. . ... : ... .. . ...
ROW 33 : ... .. . ... : ... .. 4 G01 ... : ... .. . ... : ... .. . ... : ... .. . ...
ROW 34 : ... .. . ... : A#3 09 E G01 ... : ... .. . ... : ... .. . ... : ... .. . ...
ROW 35 : ... .. . ... : ... .. . ... ... : ... .. . ... : ... .. . ... : ... .. . ...
ROW 36 : ... .. . ... : ... .. . ... ... : ... .. . ... : ... .. . ... : ... .. . ...
ROW 37 : ... .. . ... : ... .. . ... ... : ... .. . ... : ... .. . ... : ... .. . ...
ROW 38 : ... .. . ... : G#3 09 E G01 ... : ... .. . ... : ... .. . ... : ... .. . ...
ROW 39 : ... .. . ... : ... .. . ... ... : ... .. . ... : ... .. . ... : ... .. . ...
ROW 3A : ... .. . ... : ... .. . ... ... : ... .. . ... : ... .. . ... : ... .. . ...
ROW 3B : ... .. . ... : ... .. . ... ... : ... .. . ... : ... .. . ... : ... .. . ...
ROW 3C : ... .. . ... : ... .. . ... ... : ... .. . ... : ... .. . ... : ... .. . ...
ROW 3D : ... .. . ... : ... .. . G01 486 : ... .. . ... : ... .. . ... : ... .. . ...
ROW 3E : ... .. . ... : ... .. . ... ... : ... .. . ... : ... .. . ... : ... .. . ...
ROW 3F : ... .. . ... : ... .. . ... ... : ... .. . ... : ... .. . C00 : ... .. . ...

PATTERN 05
ROW 00 : --- .. . ... : E-4 09 E G01 ... : G-2 02 F ... : ... .. . ... : ... .. . ...
ROW 01 : ... .. . ... : ... .. . ... ... : ... .. . ... : ... .. . ... : ... .. . ...
ROW 02 : ... .. . ... : ... .. . ... ... : ... .. . ... : ... .. . ... : ... .. . ...
ROW 03 : ... .. . ... : ... .. . ... ... : --- .. . ... : ... .. . ... : ... .. . ...
ROW 04 : ... .. . ... : C-4 09 E G01 ... : G-2 03 F ... : ... .. . ... : ... .. . ...
ROW 05 : ... .. . ... : ... .. . ... ... : ... .. . ... : ... .. . ... : ... .. . ...
ROW 06 : ... .. . ... : ... .. . ... ... : ... .. . ... : ... .. . ... : ... .. . ...
ROW 07 : ... .. . ... : ... .. . ... ... : ... .. . ... : ... .. . ... : ... .. . ...
ROW 08 : ... .. . ... : A-3 09 E G01 ... : ... .. . ... : ... .. . ... : ... .. . ...
ROW 09 : ... .. . ... : ... .. . ... ... : ... .. . ... : ... .. . ... : ... .. . ...
ROW 0A : ... .. . ... : ... .. . ... ... : ... .. . ... : ... .. . ... : ... .. . ...
ROW 0B : ... .. . ... : ... .. . ... ... : ... .. . ... : ... .. . ... : ... .. . ...
ROW 0C : ... .. . ... : C-4 09 E G01 ... : E-2 02 F ... : ... .. . ... : ... .. . ...
ROW 0D : ... .. . ... : ... .. . ... ... : ... .. . ... : ... .. . ... : ... .. . ...
ROW 0E : ... .. . ... : ... .. . G01 485 : ... .. . ... : ... .. . ... : ... .. . ...
ROW 0F : ... .. . ... : ... .. . ... ... : ... .. . ... : ... .. . ... : ... .. . ...
ROW 10 : ... .. . ... : ... .. . ... ... : ... .. . ... : ... .. . ... : ... .. . ...
ROW 11 : ... .. . ... : ... .. . ... ... : ... .. . ... : ... .. . ... : ... .. . ...
ROW 12 : ... .. . ... : ... .. . ... ... : ... .. . ... : ... .. . ... : ... .. . ...
ROW 13 : ... .. . ... : ... .. 4 G01 ... : ... .. . ... : ... .. . ... : ... .. . ...
ROW 14 : ... .. . ... : C-4 09 E G01 400 : G-2 02 F ... : ... .. . ... : ... .. . ...
ROW 15 : ... .. . ... : ... .. . ... ... : ... .. . ... : ... .. . ... : ... .. . ...
ROW 16 : ... .. . ... : ... .. . ... ... : ... .. . ... : ... .. . ... : ... .. . ...
ROW 17 : ... .. . ... : ... .. . ... ... : ... .. . ... : ... .. . ... : ... .. . ...
ROW 18 : ... .. . ... : D-4 09 E G01 ... : ... .. . ... : ... .. . ... : ... .. . ...
ROW 19 : ... .. . ... : ... .. . ... ... : ... .. . ... : ... .. . ... : ... .. . ...
ROW 1A : ... .. . ... : ... .. . ... ... : ... .. . ... : ... .. . ... : ... .. . ...
ROW 1B : ... .. . ... : ... .. . ... ... : ... .. . ... : ... .. . ... : ... .. . ...
ROW 1C : ... .. . ... : C-4 09 E G01 ... : E-2 02 F ... : ... .. . ... : ... .. . ...
ROW 1D : ... .. . ... : ... .. . ... ... : ... .. . ... : ... .. . ... : ... .. . ...
ROW 1E : ... .. . ... : ... .. . ... ... : ... .. . ... : ... .. . ... : ... .. . ...
ROW 1F : ... .. . ... : ... .. . ... ... : ... .. . ... : ... .. . ... : ... .. . ...
ROW 20 : ... .. . ... : D#4 09 E G01 ... : D-2 02 F ... : ... .. . ... : ... .. . ...
ROW 21 : ... .. . ... : ... .. . ... ... : ... .. . ... : ... .. . ... : ... .. . ...
ROW 22 : ... .. . ... : ... .. . ... ... : ... .. . ... : ... .. . ... : ... .. . ...
ROW 23 : ... .. . ... : ... .. . ... ... : --- .. . ... : ... .. . ... : ... .. . ...
ROW 24 : ... .. . ... : C-4 09 E G01 ... : D-2 03 F ... : ... .. . ... : ... .. . ...
ROW 25 : ... .. . ... : ... .. . ... ... : ... .. . ... : ... .. . ... : ... .. . ...
ROW 26 : ... .. . ... : ... .. . ... ... : ... .. . ... : ... .. . ... : ... .. . ...
ROW 27 : ... .. . ... : ... .. . ... ... : ... .. . ... : ... .. . ... : ... .. . ...
ROW 28 : ... .. . ... : G#3 09 E G01 ... : ... .. . ... : ... .. . ... : ... .. . ...
ROW 29 : ... .. . ... : ... .. . ... ... : ... .. . ... : ... .. . ... : ... .. . ...
ROW 2A : ... .. . ... : ... .. . ... ... : ... .. . ... : ... .. . ... : ... .. . ...
ROW 2B : ... .. . ... : ... .. . ... ... : ... .. . ... : ... .. . ... : ... .. . ...
ROW 2C : ... .. . ... : C-4 09 E G01 ... : G-2 02 F ... : ... .. . ... : ... .. . ...
ROW 2D : ... .. . ... : ... .. . ... ... : ... .. . ... : ... .. . ... : ... .. . ...
ROW 2E : ... .. . ... : ... .. . G01 485 : ... .. . ... : ... .. . ... : ... .. . ...
ROW 2F : ... .. . ... : ... .. . ... ... : ... .. . ... : ... .. . ... : ... .. . ...
ROW 30 : ... .. . ... : ... .. . ... ... : ... .. . ... : ... .. . ... : ... .. . ...
ROW 31 : ... .. . ... : ... .. . ... ... : ... .. . ... : ... .. . ... : ... .. . ...
ROW 32 : ... .. . ... : ... .. . ... ... : ... .. . ... : ... .. . ... : ... .. . ...
ROW 33 : ... .. . ... : ... .. 4 G01 ... : ... .. . ... : ... .. . ... : ... .. . ...
ROW 34 : ... .. . ... : C-4 09 E G01 400 : A-2 02 F ... : ... .. . ... : ... .. . ...
ROW 35 : ... .. . ... : ... .. . ... ... : ... .. . ... : ... .. . ... : ... .. . ...
ROW 36 : ... .. . ... : ... .. . ... ... : ... .. . ... : ... .. . ... : ... .. . ...
ROW 37 : ... .. . ... : ... .. . ... ... : ... .. . ... : ... .. . ... : ... .. . ...
ROW 38 : ... .. . ... : D-4 09 E G01 ... : ... .. . ... : ... .. . ... : ... .. . ...
ROW 39 : ... .. . ... : ... .. . ... ... : ... .. . ... : ... .. . ... : ... .. . ...
ROW 3A : ... .. . ... : ... .. . ... ... : ... .. . ... : ... .. . ... : ... .. . ...
ROW 3B : ... .. . ... : ... .. . ... ... : ... .. . ... : ... .. . ... : ... .. . ...
ROW 3C : ... .. . ... : C-4 09 E G01 ... : B-2 02 F ... : ... .. . ... : ... .. . ...
ROW 3D : ... .. . ... : ... .. . ... ... : ... .. . ... : ... .. . ... : ... .. . ...
ROW 3E : ... .. . ... : ... .. . ... ... : ... .. . ... : ... .. . ... : ... .. . ...
ROW 3F : ... .. . ... : ... .. . ... ... : ... .. . ... : ... .. . ... : ... .. . ...

PATTERN 06
ROW 00 : G-2 00 B ... : ... .. C G01 ... : G-2 02 F ... : ... .. . ... : ... .. . ...
ROW 01 : ... .. . ... : ... .. . ... ... : ... .. . ... : ... .. . ... : ... .. . ...
ROW 02 : ... .. . ... : ... .. . ... ... : ... .. . ... : ... .. . ... : ... .. . ...
ROW 03 : ... .. . ... : ... .. . ... ... : --- 02 . ... : ... .. . ... : ... .. . ...
ROW 04 : ... .. 7 ... : ... .. . ... ... : G-2 03 F ... : ... .. . ... : ... .. . ...
ROW 05 : ... .. . ... : ... .. . ... ... : ... .. . ... : ... .. . ... : ... .. . ...
ROW 06 : ... .. . ... : ... .. . ... 484 : ... .. . ... : ... .. . ... : ... .. . ...
ROW 07 : ... .. . ... : ... .. . ... ... : ... .. . ... : ... .. . ... : ... .. . ...
ROW 08 : C-3 00 7 ... : ... .. . ... ... : ... .. . ... : ... .. . ... : ... .. . ...
ROW 09 : ... .. . ... : ... .. . ... ... : ... .. . ... : ... .. . ... : ... .. . ...
ROW 0A : ... .. . ... : ... .. . ... ... : ... .. . ... : ... .. . ... : ... .. . ...
ROW 0B : ... .. . ... : ... .. . ... ... : ... .. . ... : ... .. . ... : ... .. . ...
ROW 0C : ... .. . ... : ... .. A ... ... : E-2 02 F ... : ... .. . ... : ... .. . ...
ROW 0D : ... .. . ... : ... .. . ... ... : ... .. . ... : ... .. . ... : ... .. . ...
ROW 0E : ... .. . ... : ... .. . ... ... : ... .. . ... : ... .. . ... : ... .. . ...
ROW 0F : ... .. . ... : ... .. . ... ... : ... .. . ... : ... .. . ... : ... .. . ...
ROW 10 : D-3 00 7 ... : ... .. . ... ... : ... .. . ... : ... .. . ... : ... .. . ...
ROW 11 : ... .. . ... : ... .. . ... ... : ... .. . ... : ... .. . ... : ... .. . ...
ROW 12 : ... .. . ... : ... .. . ... ... : ... .. . ... : ... .. . ... : ... .. . ...
ROW 13 : ... .. . ... : ... .. . ... ... : ... .. . ... : ... .. . ... : ... .. . ...
ROW 14 : ... .. . ... : ... .. . ... ... : G-2 02 F ... : ... .. . ... : ... .. . ...
ROW 15 : ... .. . ... : ... .. . ... ... : ... .. . ... : ... .. . ... : ... .. . ...
ROW 16 : E-3 00 7 ... : ... .. . ... ... : ... .. . ... : ... .. . ... : ... .. . ...
ROW 17 : ... .. . ... : ... .. . ... ... : ... .. . ... : ... .. . ... : ... .. . ...
ROW 18 : ... .. . ... : ... .. 8 ... ... : ... .. . ... : ... .. . ... : ... .. . ...
ROW 19 : ... .. . ... : ... .. . ... ... : ... .. . ... : ... .. . ... : ... .. . ...
ROW 1A : ... .. . ... : ... .. . ... ... : ... .. . ... : ... .. . ... : ... .. . ...
ROW 1B : ... .. . ... : ... .. . ... ... : ... .. . ... : ... .. . ... : ... .. . ...
ROW 1C : G-2 00 7 ... : ... .. . ... ... : E-2 02 F ... : ... .. . ... : ... .. . ...
ROW 1D : ... .. . ... : ... .. . ... ... : ... .. . ... : ... .. . ... : ... .. . ...
ROW 1E : ... .. . ... : ... .. . ... ... : ... .. . ... : ... .. . ... : ... .. . ...
ROW 1F : ... .. . ... : ... .. . ... ... : ... .. . ... : ... .. . ... : ... .. . ...
ROW 20 : G#2 00 7 ... : ... .. 4 G01 ... : G-2 02 F ... : ... .. . ... : ... .. . ...
ROW 21 : ... .. . ... : --- 09 0 G01 400 : ... .. . ... : ... .. . ... : ... .. . ...
ROW 22 : ... .. . ... : ... .. . ... ... : ... .. . ... : ... .. . ... : ... .. . ...
ROW 23 : ... .. . ... : ... .. . ... ... : --- .. . ... : ... .. . ... : ... .. . ...
ROW 24 : ... .. . ... : ... .. . ... ... : G-2 03 F ... : ... .. . ... : ... .. . ...
ROW 25 : ... .. . ... : ... .. . ... ... : ... .. . ... : ... .. . ... : ... .. . ...
ROW 26 : ... .. . ... : ... .. . ... ... : ... .. . ... : ... .. . ... : ... .. . ...
ROW 27 : ... .. . ... : ... .. . ... ... : ... .. . ... : ... .. . ... : ... .. . ...
ROW 28 : C-3 00 7 ... : ... .. . ... ... : ... .. . ... : ... .. . ... : ... .. . ...
ROW 29 : ... .. . ... : ... .. . ... ... : ... .. . ... : ... .. . ... : ... .. . ...
ROW 2A : ... .. . ... : ... .. . ... ... : ... .. . ... : ... .. . ... : ... .. . ...
ROW 2B : ... .. . ... : ... .. . ... ... : ... .. . ... : ... .. . ... : ... .. . ...
ROW 2C : ... .. . ... : ... .. . ... ... : C-3 02 F ... : ... .. . ... : ... .. . ...
ROW 2D : ... .. . ... : ... .. . ... ... : ... .. . ... : ... .. . ... : ... .. . ...
ROW 2E : ... .. . ... : ... .. . ... ... : ... .. . ... : ... .. . ... : ... .. . ...
ROW 2F : ... .. . ... : ... .. . ... ... : ... .. . ... : ... .. . ... : ... .. . ...
ROW 30 : D-3 00 7 ... : F-4 09 E G01 ... : ... .. . ... : ... .. . ... : ... .. . ...
ROW 31 : ... .. . ... : ... .. . ... ... : ... .. . ... : ... .. . ... : ... .. . ...
ROW 32 : ... .. . ... : ... .. . ... ... : ... .. . ... : ... .. . ... : ... .. . ...
ROW 33 : ... .. . ... : ... .. . ... ... : ... .. . ... : ... .. . ... : ... .. . ...
ROW 34 : ... .. . ... : ... .. . ... ... : D-3 02 F ... : ... .. . ... : ... .. . ...
ROW 35 : ... .. . ... : ... .. . ... ... : ... .. . ... : ... .. . ... : ... .. . ...
ROW 36 : E-3 00 7 ... : E-4 09 E G01 ... : ... .. . ... : ... .. . ... : ... .. . ...
ROW 37 : ... .. . ... : ... .. . ... ... : ... .. . ... : ... .. . ... : ... .. . ...
ROW 38 : ... .. . ... : ... .. . ... ... : ... .. . ... : ... .. . ... : ... .. . ...
ROW 39 : ... .. . ... : ... .. . ... ... : ... .. . ... : ... .. . ... : ... .. . ...
ROW 3A : ... .. . ... : ... .. . ... ... : ... .. . ... : ... .. . ... : ... .. . ...
ROW 3B : ... .. . ... : ... .. . ... ... : ... .. . ... : ... .. . ... : ... .. . ...
ROW 3C : G#2 00 7 ... : C-4 09 E G01 ... : E-3 02 F ... : ... .. . ... : ... .. . ...
ROW 3D : ... .. . ... : ... .. . ... ... : ... .. . ... : ... .. . ... : ... .. . ...
ROW 3E : ... .. . ... : ... .. . ... ... : ... .. . ... : ... .. . ... : ... .. . ...
ROW 3F : ... .. . ... : ... .. . ... ... : ... .. . ... : ... .. . ... : ... .. . ...

PATTERN 07
ROW 00 : A-2 00 7 ... : A-3 09 E G01 ... : A-2 02 F ... : ... .. . ... : ... .. . ...
ROW 01 : ... .. . ... : ... .. . ... ... : ... .. . ... : ... .. . ... : ... .. . ...
ROW 02 : ... .. . ... : ... .. . ... ... : ... .. . ... : ... .. . ... : ... .. . ...
ROW 03 : ... .. . ... : ... .. . ... ... : --- .. . ... : ... .. . ... : ... .. . ...
ROW 04 : ... .. . ... : ... .. . ... ... : A-2 03 F ... : ... .. . ... : ... .. . ...
ROW 05 : ... .. . ... : ... .. . ... ... : ... .. . ... : ... .. . ... : ... .. . ...
ROW 06 : ... .. . ... : ... .. . ... ... : ... .. . ... : ... .. . ... : ... .. . ...
ROW 07 : ... .. . ... : ... .. . ... ... : ... .. . ... : ... .. . ... : ... .. . ...
ROW 08 : C-3 00 7 ... : ... .. . ... ... : ... .. . ... : ... .. . ... : ... .. . ...
ROW 09 : ... .. . ... : ... .. . ... ... : ... .. . ... : ... .. . ... : ... .. . ...
ROW 0A : ... .. . ... : ... .. . ... ... : ... .. . ... : ... .. . ... : ... .. . ...
ROW 0B : ... .. . ... : ... .. . ... ... : ... .. . ... : ... .. . ... : ... .. . ...
ROW 0C : ... .. . ... : ... .. . ... ... : F-2 02 F ... : ... .. . ... : ... .. . ...
ROW 0D : ... .. . ... : ... .. . ... ... : ... .. . ... : ... .. . ... : ... .. . ...
ROW 0E : ... .. . ... : ... .. . ... ... : ... .. . ... : ... .. . ... : ... .. . ...
ROW 0F : ... .. . ... : ... .. 4 G04 ... : ... .. . ... : ... .. . ... : ... .. . ...
ROW 10 : D-3 00 7 ... : F-4 09 E G01 ... : ... .. . ... : ... .. . ... : ... .. . ...
ROW 11 : ... .. . ... : ... .. . ... ... : ... .. . ... : ... .. . ... : ... .. . ...
ROW 12 : ... .. . ... : ... .. . ... ... : ... .. . ... : ... .. . ... : ... .. . ...
ROW 13 : ... .. . ... : ... .. . ... ... : ... .. . ... : ... .. . ... : ... .. . ...
ROW 14 : ... .. . ... : ... .. . ... ... : A-2 02 F ... : ... .. . ... : ... .. . ...
ROW 15 : ... .. . ... : ... .. . ... ... : ... .. . ... : ... .. . ... : ... .. . ...
ROW 16 : E-3 00 7 ... : E-4 09 E G01 ... : ... .. . ... : ... .. . ... : ... .. . ...
ROW 17 : ... .. . ... : ... .. . ... ... : ... .. . ... : ... .. . ... : ... .. . ...
ROW 18 : ... .. . ... : ... .. . ... ... : ... .. . ... : ... .. . ... : ... .. . ...
ROW 19 : ... .. . ... : ... .. . ... ... : ... .. . ... : ... .. . ... : ... .. . ...
ROW 1A : ... .. . ... : ... .. . ... ... : ... .. . ... : ... .. . ... : ... .. . ...
ROW 1B : ... .. . ... : ... .. . ... ... : ... .. . ... : ... .. . ... : ... .. . ...
ROW 1C : A-2 00 7 ... : C-4 09 E G01 ... : F-2 02 F ... : ... .. . ... : ... .. . ...
ROW 1D : ... .. . ... : ... .. . ... ... : ... .. . ... : ... .. . ... : ... .. . ...
ROW 1E : ... .. . ... : ... .. . ... ... : ... .. . ... : ... .. . ... : ... .. . ...
ROW 1F : ... .. . ... : ... .. . ... ... : ... .. . ... : ... .. . ... : ... .. . ...
ROW 20 : A#2 00 7 ... : G#3 09 E G01 ... : G#2 02 F ... : ... .. . ... : ... .. . ...
ROW 21 : ... .. . ... : ... .. . ... ... : ... .. . ... : ... .. . ... : ... .. . ...
ROW 22 : ... .. . ... : ... .. . ... ... : ... .. . ... : ... .. . ... : ... .. . ...
ROW 23 : ... .. . ... : ... .. . ... ... : --- .. . ... : ... .. . ... : ... .. . ...
ROW 24 : ... .. . ... : ... .. . ... ... : G#2 03 F ... : ... .. . ... : ... .. . ...
ROW 25 : ... .. . ... : ... .. . ... ... : ... .. . ... : ... .. . ... : ... .. . ...
ROW 26 : ... .. . ... : ... .. . ... ... : ... .. . ... : ... .. . ... : ... .. . ...
ROW 27 : ... .. . ... : ... .. . ... ... : ... .. . ... : ... .. . ... : ... .. . ...
ROW 28 : D-3 00 7 ... : ... .. . ... ... : ... .. . ... : ... .. . ... : ... .. . ...
ROW 29 : ... .. . ... : ... .. . ... ... : ... .. . ... : ... .. . ... : ... .. . ...
ROW 2A : ... .. . ... : ... .. . ... ... : ... .. . ... : ... .. . ... : ... .. . ...
ROW 2B : ... .. . ... : ... .. . ... ... : ... .. . ... : ... .. . ... : ... .. . ...
ROW 2C : ... .. . ... : ... .. . ... ... : F-2 02 F ... : ... .. . ... : ... .. . ...
ROW 2D : ... .. . ... : ... .. . ... ... : ... .. . ... : ... .. . ... : ... .. . ...
ROW 2E : ... .. . ... : ... .. . ... ... : ... .. . ... : ... .. . ... : ... .. . ...
ROW 2F : ... .. . ... : ... .. 4 G04 ... : ... .. . ... : ... .. . ... : ... .. . ...
ROW 30 : E-3 00 7 ... : F-4 09 E G01 ... : ... .. . ... : ... .. . ... : ... .. . ...
ROW 31 : ... .. . ... : ... .. . ... ... : ... .. . ... : ... .. . ... : ... .. . ...
ROW 32 : ... .. . ... : ... .. . ... ... : ... .. . ... : ... .. . ... : ... .. . ...
ROW 33 : ... .. . ... : ... .. . ... ... : ... .. . ... : ... .. . ... : ... .. . ...
ROW 34 : ... .. . ... : ... .. . ... ... : G#2 02 F ... : ... .. . ... : ... .. . ...
ROW 35 : ... .. . ... : ... .. . ... ... : ... .. . ... : ... .. . ... : ... .. . ...
ROW 36 : F-3 00 7 ... : E-4 09 E G01 ... : ... .. . ... : ... .. . ... : ... .. . ...
ROW 37 : ... .. . ... : ... .. . ... ... : ... .. . ... : ... .. . ... : ... .. . ...
ROW 38 : ... .. . ... : ... .. . ... ... : ... .. . ... : ... .. . ... : ... .. . ...
ROW 39 : ... .. . ... : ... .. . ... ... : ... .. . ... : ... .. . ... : ... .. . ...
ROW 3A : ... .. . ... : ... .. . ... ... : ... .. . ... : ... .. . ... : ... .. . ...
ROW 3B : ... .. . ... : ... .. . ... ... : ... .. . ... : ... .. . ... : ... .. . ...
ROW 3C : A#2 00 7 ... : C-4 09 E G01 ... : F-2 02 F ... : ... .. . ... : ... .. . ...
ROW 3D : ... .. . ... : ... .. . ... ... : ... .. . ... : ... .. . ... : ... .. . ...
ROW 3E : ... .. . ... : ... .. . ... ... : ... .. . ... : ... .. . ... : ... .. . ...
ROW 3F : ... .. . ... : ... .. . ... ... : ... .. . ... : ... .. . ... : ... .. . ...

PATTERN 08
ROW 00 : A-2 00 7 ... : G-3 09 E G01 ... : G-2 02 F ... : ... .. . ... : ... .. . ...
ROW 01 : ... .. . ... : ... .. . ... ... : ... .. . ... : ... .. . ... : ... .. . ...
ROW 02 : ... .. . ... : ... .. . ... ... : ... .. . ... : ... .. . ... : ... .. . ...
ROW 03 : ... .. . ... : ... .. . ... ... : --- .. . ... : ... .. . ... : ... .. . ...
ROW 04 : ... .. . ... : ... .. . ... ... : G-2 03 F ... : ... .. . ... : ... .. . ...
ROW 05 : ... .. . ... : ... .. . ... ... : ... .. . ... : ... .. . ... : ... .. . ...
ROW 06 : ... .. . ... : ... .. . ... ... : ... .. . ... : ... .. . ... : ... .. . ...
ROW 07 : ... .. . ... : ... .. . ... ... : ... .. . ... : ... .. . ... : ... .. . ...
ROW 08 : C-3 00 7 ... : ... .. . ... ... : ... .. . ... : ... .. . ... : ... .. . ...
ROW 09 : ... .. . ... : ... .. . ... ... : ... .. . ... : ... .. . ... : ... .. . ...
ROW 0A : ... .. . ... : ... .. . ... ... : ... .. . ... : ... .. . ... : ... .. . ...
ROW 0B : ... .. . ... : ... .. . ... ... : ... .. . ... : ... .. . ... : ... .. . ...
ROW 0C : ... .. . ... : ... .. . ... ... : E-2 02 F ... : ... .. . ... : ... .. . ...
ROW 0D : ... .. . ... : ... .. . ... ... : ... .. . ... : ... .. . ... : ... .. . ...
ROW 0E : ... .. . ... : ... .. . ... ... : ... .. . ... : ... .. . ... : ... .. . ...
ROW 0F : ... .. . ... : ... .. 4 G04 ... : ... .. . ... : ... .. . ... : ... .. . ...
ROW 10 : D-3 00 7 ... : E-3 09 E G01 ... : ... .. . ... : ... .. . ... : ... .. . ...
ROW 11 : ... .. . ... : ... .. . ... ... : ... .. . ... : ... .. . ... : ... .. . ...
ROW 12 : ... .. . ... : ... .. . ... ... : ... .. . ... : ... .. . ... : ... .. . ...
ROW 13 : ... .. . ... : ... .. . ... ... : ... .. . ... : ... .. . ... : ... .. . ...
ROW 14 : ... .. . ... : ... .. . ... ... : G-2 02 F ... : ... .. . ... : ... .. . ...
ROW 15 : ... .. . ... : ... .. . ... ... : ... .. . ... : ... .. . ... : ... .. . ...
ROW 16 : F-3 00 7 ... : G-3 09 E G01 ... : ... .. . ... : ... .. . ... : ... .. . ...
ROW 17 : ... .. . ... : ... .. . ... ... : ... .. . ... : ... .. . ... : ... .. . ...
ROW 18 : ... .. . ... : ... .. . ... ... : ... .. . ... : ... .. . ... : ... .. . ...
ROW 19 : ... .. . ... : ... .. . ... ... : ... .. . ... : ... .. . ... : ... .. . ...
ROW 1A : ... .. . ... : ... .. . ... ... : ... .. . ... : ... .. . ... : ... .. . ...
ROW 1B : ... .. . ... : ... .. . ... ... : ... .. . ... : ... .. . ... : ... .. . ...
ROW 1C : A-2 00 7 ... : A-3 09 E G01 ... : E-2 02 F ... : ... .. . ... : ... .. . ...
ROW 1D : ... .. . ... : ... .. . ... ... : ... .. . ... : ... .. . ... : ... .. . ...
ROW 1E : ... .. . ... : ... .. . ... ... : ... .. . ... : ... .. . ... : ... .. . ...
ROW 1F : ... .. . ... : ... .. . ... ... : ... .. . ... : ... .. . ... : ... .. . ...
ROW 20 : G#2 00 7 ... : B-3 09 E G01 ... : B-2 02 F ... : ... .. . ... : ... .. . ...
ROW 21 : ... .. . ... : ... .. . ... ... : ... .. . ... : ... .. . ... : ... .. . ...
ROW 22 : ... .. . ... : ... .. . ... ... : ... .. . ... : ... .. . ... : ... .. . ...
ROW 23 : ... .. . ... : ... .. . ... ... : --- 02 . ... : ... .. . ... : ... .. . ...
ROW 24 : ... .. . ... : ... .. . ... ... : B-2 03 F ... : ... .. . ... : ... .. . ...
ROW 25 : ... .. . ... : ... .. . ... ... : ... .. . ... : ... .. . ... : ... .. . ...
ROW 26 : ... .. . ... : ... .. . ... ... : ... .. . ... : ... .. . ... : ... .. . ...
ROW 27 : ... .. . ... : ... .. . ... ... : ... .. . ... : ... .. . ... : ... .. . ...
ROW 28 : C-3 00 7 ... : ... .. . ... ... : ... .. . ... : ... .. . ... : ... .. . ...
ROW 29 : ... .. . ... : ... .. . ... ... : ... .. . ... : ... .. . ... : ... .. . ...
ROW 2A : ... .. . ... : ... .. . ... ... : ... .. . ... : ... .. . ... : ... .. . ...
ROW 2B : ... .. . ... : ... .. 4 G04 ... : ... .. . ... : ... .. . ... : ... .. . ...
ROW 2C : ... .. . ... : A-3 09 E G01 ... : A-2 03 F ... : ... .. . ... : ... .. . ...
ROW 2D : ... .. . ... : ... .. . ... ... : ... .. . ... : ... .. . ... : ... .. . ...
ROW 2E : ... .. . ... : ... .. . ... ... : ... .. . ... : ... .. . ... : ... .. . ...
ROW 2F : ... .. . ... : ... .. . ... ... : ... .. . ... : ... .. . ... : ... .. . ...
ROW 30 : D-3 00 7 ... : ... .. . ... ... : ... .. . ... : ... .. . ... : ... .. . ...
ROW 31 : ... .. . ... : ... .. . ... ... : ... .. . ... : ... .. . ... : ... .. . ...
ROW 32 : ... .. . ... : ... .. . ... ... : ... .. . ... : ... .. . ... : ... .. . ...
ROW 33 : ... .. . ... : ... .. . ... ... : ... .. . ... : ... .. . ... : ... .. . ...
ROW 34 : ... .. . ... : ... .. . ... ... : G#2 02 F ... : ... .. . ... : ... .. . ...
ROW 35 : ... .. . ... : ... .. . ... ... : ... .. . ... : ... .. . ... : ... .. . ...
ROW 36 : F-3 00 7 ... : ... .. . ... ... : ... .. . ... : ... .. . ... : ... .. . ...
ROW 37 : ... .. . ... : ... .. . ... ... : ... .. . ... : ... .. . ... : ... .. . ...
ROW 38 : ... .. . ... : ... .. . ... ... : ... .. . ... : ... .. . ... : ... .. . ...
ROW 39 : ... .. . ... : ... .. . ... ... : ... .. . ... : ... .. . ... : ... .. . ...
ROW 3A : ... .. . ... : ... .. . ... ... : ... .. . ... : ... .. . ... : ... .. . ...
ROW 3B : ... .. . ... : ... .. . ... ... : ... .. . ... : ... .. . ... : ... .. . ...
ROW 3C : G#2 00 7 ... : ... .. . ... ... : A-2 02 F ... : ... .. . ... : ... .. . ...
ROW 3D : ... .. . ... : ... .. . ... ... : ... .. . ... : ... .. . ... : ... .. . ...
ROW 3E : ... .. . ... : ... .. 8 G01 ... : ... .. . ... : ... .. . ... : ... .. . ...
ROW 3F : ... .. . ... : ... .. . ... ... : --- .. . ... : ... .. . ... : ... .. . ...

PATTERN 09
ROW 00 : G-2 00 7 ... : ... .. 4 G01 ... : ... .. . ... : ... .. . ... : ... .. . ...
ROW 01 : ... .. . ... : --- .. 0 G01 ... : ... .. . ... : ... .. . ... : ... .. . ...
ROW 02 : ... .. . ... : ... .. . ... ... : ... .. . ... : ... .. . ... : ... .. . ...
ROW 03 : ... .. . ... : ... .. . ... ... : ... .. . ... : ... .. . ... : ... .. . ...
ROW 04 : ... .. . ... : A-3 09 E G01 ... : ... .. . ... : ... .. . ... : ... .. . ...
ROW 05 : ... .. . ... : ... .. . ... ... : ... .. . ... : ... .. . ... : ... .. . ...
ROW 06 : ... .. . ... : ... .. . ... ... : ... .. . ... : ... .. . ... : ... .. . ...
ROW 07 : ... .. . ... : ... .. . ... ... : ... .. . ... : ... .. . ... : ... .. . ...
ROW 08 : C-3 00 7 ... : C-4 09 E G01 ... : ... .. . ... : ... .. . ... : ... .. . ...
ROW 09 : ... .. . ... : ... .. . ... ... : ... .. . ... : ... .. . ... : ... .. . ...
ROW 0A : ... .. . ... : ... .. . ... ... : ... .. . ... : ... .. . ... : ... .. . ...
ROW 0B : ... .. . ... : ... .. . ... ... : ... .. . ... : ... .. . ... : ... .. . ...
ROW 0C : ... .. . ... : ... .. 4 G01 ... : ... .. . ... : ... .. . ... : ... .. . ...
ROW 0D : ... .. . ... : --- .. 0 G01 ... : ... .. . ... : ... .. . ... : ... .. . ...
ROW 0E : ... .. . ... : ... .. . ... ... : ... .. . ... : ... .. . ... : ... .. . ...
ROW 0F : ... .. . ... : ... .. . ... ... : ... .. . ... : ... .. . ... : ... .. . ...
ROW 10 : D-3 00 7 ... : D-4 09 E G01 ... : ... .. . ... : ... .. . ... : ... .. . ...
ROW 11 : ... .. . ... : ... .. . ... ... : ... .. . ... : ... .. . ... : ... .. . ...
ROW 12 : ... .. . ... : ... .. . ... ... : ... .. . ... : ... .. . ... : ... .. . ...
ROW 13 : ... .. . ... : ... .. . ... ... : ... .. . ... : ... .. . ... : ... .. . ...
ROW 14 : ... .. . ... : ... .. . ... ... : ... .. . ... : ... .. . ... : ... .. . ...
ROW 15 : ... .. . ... : ... .. . ... ... : ... .. . ... : ... .. . ... : ... .. . ...
ROW 16 : E-3 00 7 ... : E-4 09 E G01 ... : ... .. . ... : ... .. . ... : ... .. . ...
ROW 17 : ... .. . ... : ... .. . ... ... : ... .. . ... : ... .. . ... : ... .. . ...
ROW 18 : ... .. . ... : ... .. . ... ... : ... .. . ... : ... .. . ... : ... .. . ...
ROW 19 : ... .. . ... : ... .. . ... ... : ... .. . ... : ... .. . ... : ... .. . ...
ROW 1A : ... .. . ... : ... .. . ... ... : ... .. . ... : ... .. . ... : ... .. . ...
ROW 1B : ... .. . ... : ... .. . ... ... : ... .. . ... : ... .. . ... : ... .. . ...
ROW 1C : G-2 00 7 ... : F-4 09 E G01 ... : ... .. . ... : ... .. . ... : ... .. . ...
ROW 1D : ... .. . ... : ... .. . ... ... : ... .. . ... : ... .. . ... : ... .. . ...
ROW 1E : ... .. . ... : ... .. . ... ... : ... .. . ... : ... .. . ... : ... .. . ...
ROW 1F : ... .. . ... : ... .. . ... ... : ... .. . ... : ... .. . ... : ... .. . ...
ROW 20 : F-2 00 7 ... : ... .. . ... ... : ... .. . ... : ... .. . ... : ... .. . ...
ROW 21 : ... .. . ... : ... .. . ... ... : ... .. . ... : ... .. . ... : ... .. . ...
ROW 22 : ... .. . ... : ... .. . ... ... : ... .. . ... : ... .. . ... : ... .. . ...
ROW 23 : ... .. . ... : ... .. . ... ... : ... .. . ... : ... .. . ... : ... .. . ...
ROW 24 : ... .. . ... : ... .. . ... ... : ... .. . ... : ... .. . ... : ... .. . ...
ROW 25 : ... .. . ... : ... .. . ... ... : ... .. . ... : ... .. . ... : ... .. . ...
ROW 26 : ... .. . ... : ... .. . ... ... : ... .. . ... : ... .. . ... : ... .. . ...
ROW 27 : ... .. . ... : ... .. 4 G04 ... : ... .. . ... : ... .. . ... : ... .. . ...
ROW 28 : C-3 00 7 ... : E-4 09 E G01 ... : ... .. . ... : ... .. . ... : ... .. . ...
ROW 29 : ... .. . ... : ... .. . ... ... : ... .. . ... : ... .. . ... : ... .. . ...
ROW 2A : ... .. . ... : ... .. . ... ... : ... .. . ... : ... .. . ... : ... .. . ...
ROW 2B : ... .. . ... : ... .. . ... ... : ... .. . ... : ... .. . ... : ... .. . ...
ROW 2C : ... .. . ... : C-4 09 E G01 ... : ... .. . ... : ... .. . ... : ... .. . ...
ROW 2D : ... .. . ... : ... .. . ... ... : ... .. . ... : ... .. . ... : ... .. . ...
ROW 2E : ... .. . ... : ... .. . ... ... : ... .. . ... : ... .. . ... : ... .. . ...
ROW 2F : ... .. . ... : ... .. . ... ... : ... .. . ... : ... .. . ... : ... .. . ...
ROW 30 : G-3 00 7 ... : ... .. . ... ... : ... .. . ... : ... .. . ... : ... .. . ...
ROW 31 : ... .. . ... : ... .. . ... ... : ... .. . ... : ... .. . ... : ... .. . ...
ROW 32 : ... .. . ... : ... .. . ... ... : ... .. . ... : ... .. . ... : ... .. . ...
ROW 33 : ... .. . ... : ... .. . ... ... : ... .. . ... : ... .. . ... : ... .. . ...
ROW 34 : ... .. . ... : ... .. . ... ... : ... .. . ... : ... .. . ... : ... .. . ...
ROW 35 : ... .. . ... : ... .. . ... ... : ... .. . ... : ... .. . ... : ... .. . ...
ROW 36 : F-3 00 7 ... : ... .. . ... ... : ... .. . ... : ... .. . ... : ... .. . ...
ROW 37 : ... .. . ... : ... .. 4 G04 ... : ... .. . ... : ... .. . ... : ... .. . ...
ROW 38 : ... .. . ... : D-4 09 E G01 ... : ... .. . ... : ... .. . ... : ... .. . ...
ROW 39 : ... .. . ... : ... .. . ... ... : ... .. . ... : ... .. . ... : ... .. . ...
ROW 3A : ... .. . ... : ... .. . ... ... : ... .. . ... : ... .. . ... : ... .. . ...
ROW 3B : ... .. . ... : ... .. . ... ... : ... .. . ... : ... .. . ... : ... .. . ...
ROW 3C : E-3 00 7 ... : ... .. . ... ... : ... .. . ... : ... .. . ... : ... .. . ...
ROW 3D : ... .. . ... : ... .. . ... ... : ... .. . ... : ... .. . ... : ... .. . ...
ROW 3E : ... .. . ... : ... .. . ... ... : ... .. . ... : ... .. . ... : ... .. . ...
ROW 3F : ... .. . ... : ... .. . ... ... : ... .. . ... : ... .. . ... : ... .. . ...

PATTERN 0A
ROW 00 : G-2 00 7 ... : D-4 09 E G01 ... : G-2 02 F ... : ... .. . ... : ... .. . ...
ROW 01 : ... .. . ... : ... .. . ... ... : ... .. . ... : ... .. . ... : ... .. . ...
ROW 02 : ... .. . ... : ... .. . ... ... : ... .. . ... : ... .. . ... : ... .. . ...
ROW 03 : ... .. . ... : ... .. . ... ... : --- .. . ... : ... .. . ... : ... .. . ...
ROW 04 : ... .. . ... : ... .. . ... ... : G-2 03 F ... : ... .. . ... : ... .. . ...
ROW 05 : ... .. . ... : ... .. . ... ... : ... .. . ... : ... .. . ... : ... .. . ...
ROW 06 : ... .. . ... : ... .. . ... ... : ... .. . ... : ... .. . ... : ... .. . ...
ROW 07 : ... .. . ... : ... .. . ... ... : ... .. . ... : ... .. . ... : ... .. . ...
ROW 08 : C-3 00 7 ... : ... .. . ... ... : ... .. . ... : ... .. . ... : ... .. . ...
ROW 09 : ... .. . ... : ... .. . ... ... : ... .. . ... : ... .. . ... : ... .. . ...
ROW 0A : ... .. . ... : ... .. . ... ... : ... .. . ... : ... .. . ... : ... .. . ...
ROW 0B : ... .. . ... : ... .. 4 G04 ... : ... .. . ... : ... .. . ... : ... .. . ...
ROW 0C : ... .. . ... : E-4 09 E G01 ... : E-2 02 F ... : ... .. . ... : ... .. . ...
ROW 0D : ... .. . ... : ... .. . ... ... : ... .. . ... : ... .. . ... : ... .. . ...
ROW 0E : ... .. . ... : ... .. . ... ... : ... .. . ... : ... .. . ... : ... .. . ...
ROW 0F : ... .. . ... : ... .. . ... ... : ... .. . ... : ... .. . ... : ... .. . ...
ROW 10 : D-3 00 7 ... : ... .. . ... ... : ... .. . ... : ... .. . ... : ... .. . ...
ROW 11 : ... .. . ... : ... .. . ... ... : ... .. . ... : ... .. . ... : ... .. . ...
ROW 12 : ... .. . ... : ... .. . ... ... : ... .. . ... : ... .. . ... : ... .. . ...
ROW 13 : ... .. . ... : ... .. . ... ... : ... .. . ... : ... .. . ... : ... .. . ...
ROW 14 : ... .. . ... : ... .. . ... ... : F-2 02 F ... : ... .. . ... : ... .. . ...
ROW 15 : ... .. . ... : ... .. . ... ... : ... .. . ... : ... .. . ... : ... .. . ...
ROW 16 : E-3 00 7 ... : ... .. . ... ... : ... .. . ... : ... .. . ... : ... .. . ...
ROW 17 : ... .. . ... : ... .. . ... ... : ... .. . ... : ... .. . ... : ... .. . ...
ROW 18 : ... .. . ... : ... .. . ... ... : ... .. . ... : ... .. . ... : ... .. . ...
ROW 19 : ... .. . ... : ... .. . ... ... : ... .. . ... : ... .. . ... : ... .. . ...
ROW 1A : ... .. . ... : ... .. . ... ... : ... .. . ... : ... .. . ... : ... .. . ...
ROW 1B : ... .. . ... : ... .. . ... ... : ... .. . ... : ... .. . ... : ... .. . ...
ROW 1C : G#2 00 7 ... : ... .. . ... ... : G-2 02 F ... : ... .. . ... : ... .. . ...
ROW 1D : ... .. . ... : ... .. . ... ... : ... .. . ... : ... .. . ... : ... .. . ...
ROW 1E : ... .. . ... : ... .. . ... ... : ... .. . ... : ... .. . ... : ... .. . ...
ROW 1F : ... .. . ... : ... .. . ... ... : --- .. . ... : ... .. . ... : ... .. . ...
ROW 20 : G-2 00 7 ... : ... .. 8 G01 ... : G-2 02 F ... : ... .. . ... : ... .. . ...
ROW 21 : ... .. . ... : ... .. . ... ... : ... .. . ... : ... .. . ... : ... .. . ...
ROW 22 : ... .. . ... : ... .. . ... ... : ... .. . ... : ... .. . ... : ... .. . ...
ROW 23 : ... .. . ... : ... .. . ... ... : --- .. . ... : ... .. . ... : ... .. . ...
ROW 24 : ... .. . ... : ... .. 4 G01 ... : G-2 03 F ... : ... .. . ... : ... .. . ...
ROW 25 : ... .. . ... : --- .. 0 G01 ... : ... .. . ... : ... .. . ... : ... .. . ...
ROW 26 : ... .. . ... : ... .. . ... ... : ... .. . ... : ... .. . ... : ... .. . ...
ROW 27 : ... .. . ... : ... .. . ... ... : ... .. . ... : ... .. . ... : ... .. . ...
ROW 28 : C-3 00 7 ... : ... .. . ... ... : ... .. . ... : ... .. . ... : ... .. . ...
ROW 29 : ... .. . ... : ... .. . ... ... : ... .. . ... : ... .. . ... : ... .. . ...
ROW 2A : ... .. . ... : ... .. . ... ... : ... .. . ... : ... .. . ... : ... .. . ...
ROW 2B : ... .. . ... : ... .. . ... ... : ... .. . ... : ... .. . ... : ... .. . ...
ROW 2C : ... .. . ... : ... .. . ... ... : C-3 02 F ... : ... .. . ... : ... .. . ...
ROW 2D : ... .. . ... : ... .. . ... ... : ... .. . ... : ... .. . ... : ... .. . ...
ROW 2E : ... .. . ... : ... .. . ... ... : ... .. . ... : ... .. . ... : ... .. . ...
ROW 2F : ... .. . ... : ... .. . ... ... : ... .. . ... : ... .. . ... : ... .. . ...
ROW 30 : D-3 00 7 ... : F-4 09 E G01 ... : ... .. . ... : ... .. . ... : ... .. . ...
ROW 31 : ... .. . ... : ... .. . ... ... : ... .. . ... : ... .. . ... : ... .. . ...
ROW 32 : ... .. . ... : ... .. . ... ... : ... .. . ... : ... .. . ... : ... .. . ...
ROW 33 : ... .. . ... : ... .. . ... ... : ... .. . ... : ... .. . ... : ... .. . ...
ROW 34 : ... .. . ... : ... .. . ... ... : D-3 02 F ... : ... .. . ... : ... .. . ...
ROW 35 : ... .. . ... : ... .. . ... ... : ... .. . ... : ... .. . ... : ... .. . ...
ROW 36 : C-3 00 7 ... : E-4 09 E G01 ... : ... .. . ... : ... .. . ... : ... .. . ...
ROW 37 : ... .. . ... : ... .. . ... ... : ... .. . ... : ... .. . ... : ... .. . ...
ROW 38 : ... .. . ... : ... .. . ... ... : ... .. . ... : ... .. . ... : ... .. . ...
ROW 39 : ... .. . ... : ... .. . ... ... : ... .. . ... : ... .. . ... : ... .. . ...
ROW 3A : ... .. . ... : ... .. . ... ... : ... .. . ... : ... .. . ... : ... .. . ...
ROW 3B : ... .. . ... : ... .. . ... ... : ... .. . ... : ... .. . ... : ... .. . ...
ROW 3C : B-2 00 7 ... : C-4 09 E G01 ... : E-3 02 F ... : ... .. . ... : ... .. . ...
ROW 3D : ... .. . ... : ... .. . ... ... : ... .. . ... : ... .. . ... : ... .. . ...
ROW 3E : ... .. . ... : ... .. . ... ... : ... .. . ... : ... .. . ... : ... .. . ...
ROW 3F : ... .. . ... : ... .. . ... ... : ... .. . ... : ... .. . ... : ... .. . ...

PATTERN 0B
ROW 00 : A-2 00 7 ... : A-3 09 E G01 ... : A-2 02 F ... : ... .. . ... : ... .. . ...
ROW 01 : ... .. . ... : ... .. . ... ... : ... .. . ... : ... .. . ... : ... .. . ...
ROW 02 : ... .. . ... : ... .. . ... ... : ... .. . ... : ... .. . ... : ... .. . ...
ROW 03 : ... .. . ... : ... .. . ... ... : --- .. . ... : ... .. . ... : ... .. . ...
ROW 04 : ... .. . ... : ... .. . ... ... : A-2 03 F ... : ... .. . ... : ... .. . ...
ROW 05 : ... .. . ... : ... .. . ... ... : ... .. . ... : ... .. . ... : ... .. . ...
ROW 06 : ... .. . ... : ... .. . ... ... : ... .. . ... : ... .. . ... : ... .. . ...
ROW 07 : ... .. . ... : ... .. . ... ... : ... .. . ... : ... .. . ... : ... .. . ...
ROW 08 : C-3 00 7 ... : ... .. . ... ... : ... .. . ... : ... .. . ... : ... .. . ...
ROW 09 : ... .. . ... : ... .. . ... ... : ... .. . ... : ... .. . ... : ... .. . ...
ROW 0A : ... .. . ... : ... .. . ... ... : ... .. . ... : ... .. . ... : ... .. . ...
ROW 0B : ... .. . ... : ... .. . ... ... : ... .. . ... : ... .. . ... : ... .. . ...
ROW 0C : ... .. . ... : ... .. . ... ... : F-2 02 F ... : ... .. . ... : ... .. . ...
ROW 0D : ... .. . ... : ... .. . ... ... : ... .. . ... : ... .. . ... : ... .. . ...
ROW 0E : ... .. . ... : ... .. . ... ... : ... .. . ... : ... .. . ... : ... .. . ...
ROW 0F : ... .. . ... : ... .. 4 G04 ... : ... .. . ... : ... .. . ... : ... .. . ...
ROW 10 : D-3 00 7 ... : F-4 09 E G01 ... : ... .. . ... : ... .. . ... : ... .. . ...
ROW 11 : ... .. . ... : ... .. . ... ... : ... .. . ... : ... .. . ... : ... .. . ...
ROW 12 : ... .. . ... : ... .. . ... ... : ... .. . ... : ... .. . ... : ... .. . ...
ROW 13 : ... .. . ... : ... .. . ... ... : ... .. . ... : ... .. . ... : ... .. . ...
ROW 14 : ... .. . ... : ... .. . ... ... : A-2 02 F ... : ... .. . ... : ... .. . ...
ROW 15 : ... .. . ... : ... .. . ... ... : ... .. . ... : ... .. . ... : ... .. . ...
ROW 16 : F-3 00 7 ... : E-4 09 E G01 ... : ... .. . ... : ... .. . ... : ... .. . ...
ROW 17 : ... .. . ... : ... .. . ... ... : ... .. . ... : ... .. . ... : ... .. . ...
ROW 18 : ... .. . ... : ... .. . ... ... : ... .. . ... : ... .. . ... : ... .. . ...
ROW 19 : ... .. . ... : ... .. . ... ... : ... .. . ... : ... .. . ... : ... .. . ...
ROW 1A : ... .. . ... : ... .. . ... ... : ... .. . ... : ... .. . ... : ... .. . ...
ROW 1B : ... .. . ... : ... .. . ... ... : ... .. . ... : ... .. . ... : ... .. . ...
ROW 1C : A-2 00 7 ... : C-4 09 E G01 ... : F-2 02 F ... : ... .. . ... : ... .. . ...
ROW 1D : ... .. . ... : ... .. . ... ... : ... .. . ... : ... .. . ... : ... .. . ...
ROW 1E : ... .. . ... : ... .. . ... ... : ... .. . ... : ... .. . ... : ... .. . ...
ROW 1F : ... .. . ... : ... .. . ... ... : ... .. . ... : ... .. . ... : ... .. . ...
ROW 20 : G#2 00 7 ... : G#3 09 E G01 ... : G#2 02 F ... : ... .. . ... : ... .. . ...
ROW 21 : ... .. . ... : ... .. . ... ... : ... .. . ... : ... .. . ... : ... .. . ...
ROW 22 : ... .. . ... : ... .. . ... ... : ... .. . ... : ... .. . ... : ... .. . ...
ROW 23 : ... .. . ... : ... .. . ... ... : --- .. . ... : ... .. . ... : ... .. . ...
ROW 24 : ... .. . ... : ... .. . ... ... : G#2 03 F ... : ... .. . ... : ... .. . ...
ROW 25 : ... .. . ... : ... .. . ... ... : ... .. . ... : ... .. . ... : ... .. . ...
ROW 26 : ... .. . ... : ... .. . ... ... : ... .. . ... : ... .. . ... : ... .. . ...
ROW 27 : ... .. . ... : ... .. . ... ... : ... .. . ... : ... .. . ... : ... .. . ...
ROW 28 : C-3 00 7 ... : ... .. . ... ... : ... .. . ... : ... .. . ... : ... .. . ...
ROW 29 : ... .. . ... : ... .. . ... ... : ... .. . ... : ... .. . ... : ... .. . ...
ROW 2A : ... .. . ... : ... .. . ... ... : ... .. . ... : ... .. . ... : ... .. . ...
ROW 2B : ... .. . ... : ... .. 4 G04 ... : ... .. . ... : ... .. . ... : ... .. . ...
ROW 2C : ... .. . ... : C-4 09 E G01 ... : F-2 02 F ... : ... .. . ... : ... .. . ...
ROW 2D : ... .. . ... : ... .. . ... ... : ... .. . ... : ... .. . ... : ... .. . ...
ROW 2E : ... .. . ... : ... .. . ... ... : ... .. . ... : ... .. . ... : ... .. . ...
ROW 2F : ... .. . ... : ... .. . ... ... : ... .. . ... : ... .. . ... : ... .. . ...
ROW 30 : D-3 00 7 ... : ... .. . ... ... : ... .. . ... : ... .. . ... : ... .. . ...
ROW 31 : ... .. . ... : ... .. . ... ... : ... .. . ... : ... .. . ... : ... .. . ...
ROW 32 : ... .. . ... : ... .. . ... ... : ... .. . ... : ... .. . ... : ... .. . ...
ROW 33 : ... .. . ... : ... .. . ... ... : ... .. . ... : ... .. . ... : ... .. . ...
ROW 34 : ... .. . ... : ... .. . ... ... : G#2 02 F ... : ... .. . ... : ... .. . ...
ROW 35 : ... .. . ... : ... .. . ... ... : ... .. . ... : ... .. . ... : ... .. . ...
ROW 36 : F-3 00 7 ... : ... .. . ... ... : ... .. . ... : ... .. . ... : ... .. . ...
ROW 37 : ... .. . ... : ... .. 4 G04 ... : ... .. . ... : ... .. . ... : ... .. . ...
ROW 38 : ... .. . ... : D-4 09 E G01 ... : ... .. . ... : ... .. . ... : ... .. . ...
ROW 39 : ... .. . ... : ... .. . ... ... : ... .. . ... : ... .. . ... : ... .. . ...
ROW 3A : ... .. . ... : ... .. . ... ... : ... .. . ... : ... .. . ... : ... .. . ...
ROW 3B : ... .. . ... : ... .. . ... ... : ... .. . ... : ... .. . ... : ... .. . ...
ROW 3C : G#2 00 7 ... : ... .. . ... ... : F-2 02 F ... : ... .. . ... : ... .. . ...
ROW 3D : ... .. . ... : ... .. . ... ... : ... .. . ... : ... .. . ... : ... .. . ...
ROW 3E : ... .. . ... : ... .. . ... ... : ... .. . ... : ... .. . ... : ... .. . ...
ROW 3F : ... .. . ... : ... .. 4 G04 ... : ... .. . ... : ... .. . ... : ... .. . ...

PATTERN 0C
ROW 00 : G-2 00 7 ... : E-4 09 E G01 ... : C-3 02 F ... : ... .. . ... : ... .. . ...
ROW 01 : ... .. . ... : ... .. . ... ... : ... .. . ... : ... .. . ... : ... .. . ...
ROW 02 : ... .. . ... : ... .. . ... ... : ... .. . ... : ... .. . ... : ... .. . ...
ROW 03 : ... .. . ... : ... .. . ... ... : --- .. . ... : ... .. . ... : ... .. . ...
ROW 04 : ... .. . ... : ... .. . ... ... : C-3 03 F ... : ... .. . ... : ... .. . ...
ROW 05 : ... .. . ... : ... .. . ... ... : ... .. . ... : ... .. . ... : ... .. . ...
ROW 06 : ... .. . ... : ... .. . ... ... : ... .. . ... : ... .. . ... : ... .. . ...
ROW 07 : ... .. . ... : ... .. 4 G04 ... : ... .. . ... : ... .. . ... : ... .. . ...
ROW 08 : C-3 00 7 ... : G-4 09 E G01 ... : ... .. . ... : ... .. . ... : ... .. . ...
ROW 09 : ... .. . ... : ... .. . ... ... : ... .. . ... : ... .. . ... : ... .. . ...
ROW 0A : ... .. . ... : ... .. . ... ... : ... .. . ... : ... .. . ... : ... .. . ...
ROW 0B : ... .. . ... : ... .. . ... ... : ... .. . ... : ... .. . ... : ... .. . ...
ROW 0C : ... .. . ... : ... .. . ... ... : G-2 02 F ... : ... .. . ... : ... .. . ...
ROW 0D : ... .. . ... : ... .. . ... ... : ... .. . ... : ... .. . ... : ... .. . ...
ROW 0E : ... .. . ... : ... .. . ... ... : ... .. . ... : ... .. . ... : ... .. . ...
ROW 0F : ... .. . ... : ... .. 4 G04 ... : ... .. . ... : ... .. . ... : ... .. . ...
ROW 10 : D-3 00 7 ... : A-4 09 E G01 ... : ... .. . ... : ... .. . ... : ... .. . ...
ROW 11 : ... .. . ... : ... .. . ... ... : ... .. . ... : ... .. . ... : ... .. . ...
ROW 12 : ... .. . ... : ... .. . ... ... : ... .. . ... : ... .. . ... : ... .. . ...
ROW 13 : ... .. . ... : ... .. . ... ... : ... .. . ... : ... .. . ... : ... .. . ...
ROW 14 : ... .. . ... : ... .. . ... ... : C-3 02 F ... : ... .. . ... : ... .. . ...
ROW 15 : ... .. . ... : ... .. . ... ... : ... .. . ... : ... .. . ... : ... .. . ...
ROW 16 : E-3 00 7 ... : ... .. . ... ... : ... .. . ... : ... .. . ... : ... .. . ...
ROW 17 : ... .. . ... : ... .. 4 G04 ... : ... .. . ... : ... .. . ... : ... .. . ...
ROW 18 : ... .. . ... : B-4 09 E G01 ... : ... .. . ... : ... .. . ... : ... .. . ...
ROW 19 : ... .. . ... : ... .. . ... ... : ... .. . ... : ... .. . ... : ... .. . ...
ROW 1A : ... .. . ... : ... .. . ... ... : ... .. . ... : ... .. . ... : ... .. . ...
ROW 1B : ... .. . ... : ... .. . ... ... : ... .. . ... : ... .. . ... : ... .. . ...
ROW 1C : C-3 00 7 ... : ... .. . ... ... : B-2 02 F ... : ... .. . ... : ... .. . ...
ROW 1D : ... .. . ... : ... .. . ... ... : ... .. . ... : ... .. . ... : ... .. . ...
ROW 1E : ... .. . ... : ... .. . ... ... : ... .. . ... : ... .. . ... : ... .. . ...
ROW 1F : ... .. . ... : ... .. 4 G04 ... : ... .. . ... : ... .. . ... : ... .. . ...
ROW 20 : D-3 00 7 ... : A-4 09 E G01 ... : A-2 02 F ... : ... .. . ... : ... .. . ...
ROW 21 : ... .. . ... : ... .. . ... ... : ... .. . ... : ... .. . ... : ... .. . ...
ROW 22 : ... .. . ... : ... .. . ... ... : ... .. . ... : ... .. . ... : ... .. . ...
ROW 23 : ... .. . ... : ... .. . ... ... : --- .. . ... : ... .. . ... : ... .. . ...
ROW 24 : ... .. . ... : ... .. . ... ... : A-2 03 F ... : ... .. . ... : ... .. . ...
ROW 25 : ... .. . ... : ... .. . ... ... : ... .. . ... : ... .. . ... : ... .. . ...
ROW 26 : ... .. . ... : ... .. . ... ... : ... .. . ... : ... .. . ... : ... .. . ...
ROW 27 : ... .. . ... : ... .. . ... ... : ... .. . ... : ... .. . ... : ... .. . ...
ROW 28 : C-3 00 7 ... : ... .. . ... ... : ... .. . ... : ... .. . ... : ... .. . ...
ROW 29 : ... .. . ... : ... .. . ... ... : ... .. . ... : ... .. . ... : ... .. . ...
ROW 2A : ... .. . ... : ... .. . ... ... : ... .. . ... : ... .. . ... : ... .. . ...
ROW 2B : ... .. . ... : ... .. 4 G04 ... : ... .. . ... : ... .. . ... : ... .. . ...
ROW 2C : ... .. . ... : G-4 09 E G01 ... : A-2 03 F ... : ... .. . ... : ... .. . ...
ROW 2D : ... .. . ... : ... .. . ... ... : ... .. . ... : ... .. . ... : ... .. . ...
ROW 2E : ... .. . ... : ... .. . ... ... : ... .. . ... : ... .. . ... : ... .. . ...
ROW 2F : ... .. . ... : ... .. . ... ... : ... .. . ... : ... .. . ... : ... .. . ...
ROW 30 : B-2 00 7 ... : ... .. . ... ... : ... .. . ... : ... .. . ... : ... .. . ...
ROW 31 : ... .. . ... : ... .. . ... ... : ... .. . ... : ... .. . ... : ... .. . ...
ROW 32 : ... .. . ... : ... .. . ... ... : ... .. . ... : ... .. . ... : ... .. . ...
ROW 33 : ... .. . ... : ... .. . ... ... : ... .. . ... : ... .. . ... : ... .. . ...
ROW 34 : ... .. . ... : ... .. . ... ... : G#2 02 F ... : ... .. . ... : ... .. . ...
ROW 35 : ... .. . ... : ... .. . ... ... : ... .. . ... : ... .. . ... : ... .. . ...
ROW 36 : A-2 00 7 ... : ... .. . ... ... : ... .. . ... : ... .. . ... : ... .. . ...
ROW 37 : ... .. . ... : ... .. 4 G04 ... : ... .. . ... : ... .. . ... : ... .. . ...
ROW 38 : ... .. . ... : E-4 09 E G01 ... : ... .. . ... : ... .. . ... : ... .. . ...
ROW 39 : ... .. . ... : ... .. . ... ... : ... .. . ... : ... .. . ... : ... .. . ...
ROW 3A : ... .. . ... : ... .. . ... ... : ... .. . ... : ... .. . ... : ... .. . ...
ROW 3B : ... .. . ... : ... .. . ... ... : ... .. . ... : ... .. . ... : ... .. . ...
ROW 3C : G#2 00 7 ... : ... .. . ... ... : G-2 02 F ... : ... .. . ... : ... .. . ...
ROW 3D : ... .. . ... : ... .. . ... ... : ... .. . ... : ... .. . ... : ... .. . ...
ROW 3E : ... .. . ... : ... .. . ... ... : ... .. . ... : ... .. . ... : ... .. . ...
ROW 3F : ... .. . ... : ... .. . ... ... : ... .. . ... : ... .. . ... : ... .. . ...

PATTERN 0D
ROW 00 : A-2 00 7 ... : F-4 09 E G01 ... : F-2 02 F ... : ... .. . ... : ... .. . ...
ROW 01 : ... .. . ... : ... .. . ... ... : ... .. . ... : ... .. . ... : ... .. . ...
ROW 02 : ... .. . ... : ... .. . ... ... : ... .. . ... : ... .. . ... : ... .. . ...
ROW 03 : ... .. . ... : ... .. . ... ... : --- .. . ... : ... .. . ... : ... .. . ...
ROW 04 : ... .. . ... : ... .. . ... ... : F-2 03 F ... : ... .. . ... : ... .. . ...
ROW 05 : ... .. . ... : ... .. . ... ... : ... .. . ... : ... .. . ... : ... .. . ...
ROW 06 : ... .. . ... : ... .. . ... ... : ... .. . ... : ... .. . ... : ... .. . ...
ROW 07 : ... .. . ... : ... .. . ... ... : ... .. . ... : ... .. . ... : ... .. . ...
ROW 08 : C-3 00 7 ... : E-4 09 E G01 ... : ... .. . ... : ... .. . ... : ... .. . ...
ROW 09 : ... .. . ... : ... .. . ... ... : ... .. . ... : ... .. . ... : ... .. . ...
ROW 0A : ... .. . ... : ... .. . ... ... : ... .. . ... : ... .. . ... : ... .. . ...
ROW 0B : ... .. . ... : ... .. . ... ... : ... .. . ... : ... .. . ... : ... .. . ...
ROW 0C : ... .. . ... : ... .. . ... ... : F-2 03 F ... : ... .. . ... : ... .. . ...
ROW 0D : ... .. . ... : ... .. . ... ... : ... .. . ... : ... .. . ... : ... .. . ...
ROW 0E : ... .. . ... : ... .. . ... ... : ... .. . ... : ... .. . ... : ... .. . ...
ROW 0F : ... .. . ... : ... .. . ... ... : ... .. . ... : ... .. . ... : ... .. . ...
ROW 10 : D-3 00 7 ... : C-4 09 E G01 ... : ... .. . ... : ... .. . ... : ... .. . ...
ROW 11 : ... .. . ... : ... .. . ... ... : ... .. . ... : ... .. . ... : ... .. . ...
ROW 12 : ... .. . ... : ... .. . ... ... : ... .. . ... : ... .. . ... : ... .. . ...
ROW 13 : ... .. . ... : ... .. . ... ... : ... .. . ... : ... .. . ... : ... .. . ...
ROW 14 : ... .. . ... : ... .. . ... ... : E-2 02 F ... : ... .. . ... : ... .. . ...
ROW 15 : ... .. . ... : ... .. . ... ... : ... .. . ... : ... .. . ... : ... .. . ...
ROW 16 : F-3 00 7 ... : ... .. . ... ... : ... .. . ... : ... .. . ... : ... .. . ...
ROW 17 : ... .. . ... : ... .. . ... ... : ... .. . ... : ... .. . ... : ... .. . ...
ROW 18 : ... .. . ... : G#3 09 E G01 ... : ... .. . ... : ... .. . ... : ... .. . ...
ROW 19 : ... .. . ... : ... .. . ... ... : ... .. . ... : ... .. . ... : ... .. . ...
ROW 1A : ... .. . ... : ... .. . ... ... : ... .. . ... : ... .. . ... : ... .. . ...
ROW 1B : ... .. . ... : ... .. . ... ... : ... .. . ... : ... .. . ... : ... .. . ...
ROW 1C : A-2 00 7 ... : C-4 09 E G01 ... : F-2 02 F ... : ... .. . ... : ... .. . ...
ROW 1D : ... .. . ... : ... .. . ... ... : ... .. . ... : ... .. . ... : ... .. . ...
ROW 1E : ... .. . ... : ... .. . ... ... : ... .. . ... : ... .. . ... : ... .. . ...
ROW 1F : ... .. . ... : ... .. . ... ... : --- .. . ... : ... .. . ... : ... .. . ...
ROW 20 : G#2 00 7 ... : ... .. . ... ... : F-2 02 F ... : ... .. . ... : ... .. . ...
ROW 21 : ... .. . ... : ... .. . ... ... : ... .. . ... : ... .. . ... : ... .. . ...
ROW 22 : ... .. . ... : ... .. . ... ... : ... .. . ... : ... .. . ... : ... .. . ...
ROW 23 : ... .. . ... : ... .. . ... ... : --- 02 . ... : ... .. . ... : ... .. . ...
ROW 24 : ... .. . ... : ... .. . ... ... : F-2 03 F ... : ... .. . ... : ... .. . ...
ROW 25 : ... .. . ... : ... .. . ... ... : ... .. . ... : ... .. . ... : ... .. . ...
ROW 26 : ... .. . ... : ... .. . ... ... : ... .. . ... : ... .. . ... : ... .. . ...
ROW 27 : ... .. . ... : ... .. . ... ... : ... .. . ... : ... .. . ... : ... .. . ...
ROW 28 : C-3 00 7 ... : ... .. . ... ... : ... .. . ... : ... .. . ... : ... .. . ...
ROW 29 : ... .. . ... : ... .. . ... ... : ... .. . ... : ... .. . ... : ... .. . ...
ROW 2A : ... .. . ... : ... .. 8 G01 ... : ... .. . ... : ... .. . ... : ... .. . ...
ROW 2B : ... .. . ... : ... .. 4 G01 ... : ... .. . ... : ... .. . ... : ... .. . ...
ROW 2C : ... .. . ... : E-4 09 E G01 ... : F-2 03 F ... : ... .. . ... : ... .. . ...
ROW 2D : ... .. . ... : ... .. . ... ... : ... .. . ... : ... .. . ... : ... .. . ...
ROW 2E : ... .. . ... : ... .. . ... ... : ... .. . ... : ... .. . ... : ... .. . ...
ROW 2F : ... .. . ... : ... .. . ... ... : ... .. . ... : ... .. . ... : ... .. . ...
ROW 30 : D-3 00 7 ... : ... .. . ... ... : ... .. . ... : ... .. . ... : ... .. . ...
ROW 31 : ... .. . ... : ... .. . ... ... : ... .. . ... : ... .. . ... : ... .. . ...
ROW 32 : ... .. . ... : ... .. . ... ... : ... .. . ... : ... .. . ... : ... .. . ...
ROW 33 : ... .. . ... : ... .. . ... ... : ... .. . ... : ... .. . ... : ... .. . ...
ROW 34 : ... .. . ... : ... .. . ... ... : E-2 02 F ... : ... .. . ... : ... .. . ...
ROW 35 : ... .. . ... : ... .. . ... ... : ... .. . ... : ... .. . ... : ... .. . ...
ROW 36 : F-3 00 7 ... : ... .. . ... ... : ... .. . ... : ... .. . ... : ... .. . ...
ROW 37 : ... .. . ... : ... .. 4 G04 ... : ... .. . ... : ... .. . ... : ... .. . ...
ROW 38 : ... .. . ... : F-4 09 E G01 ... : ... .. . ... : ... .. . ... : ... .. . ...
ROW 39 : ... .. . ... : ... .. . ... ... : ... .. . ... : ... .. . ... : ... .. . ...
ROW 3A : ... .. . ... : ... .. . ... ... : ... .. . ... : ... .. . ... : ... .. . ...
ROW 3B : ... .. . ... : ... .. . ... ... : ... .. . ... : ... .. . ... : ... .. . ...
ROW 3C : G#2 00 7 ... : ... .. . ... ... : F-2 02 F ... : ... .. . ... : ... .. . ...
ROW 3D : ... .. . ... : ... .. . ... ... : ... .. . ... : ... .. . ... : ... .. . ...
ROW 3E : ... .. . ... : ... .. . ... ... : ... .. . ... : ... .. . ... : ... .. . ...
ROW 3F : ... .. . ... : ... .. . ... ... : ... .. . ... : ... .. . ... : ... .. . ...

PATTERN 0E
ROW 00 : G-2 00 . ... : G-4 09 E G01 ... : G-2 02 F ... : ... .. . ... : ... .. . ...
ROW 01 : ... .. . ... : ... .. . ... ... : ... .. . ... : ... .. . ... : ... .. . ...
ROW 02 : ... .. . ... : ... .. . ... ... : ... .. . ... : ... .. . ... : ... .. . ...
ROW 03 : ... .. . ... : ... .. . ... ... : --- .. . ... : ... .. . ... : ... .. . ...
ROW 04 : ... .. . ... : ... .. . ... ... : G-2 03 F ... : ... .. . ... : ... .. . ...
ROW 05 : ... .. . ... : ... .. . ... ... : ... .. . ... : ... .. . ... : ... .. . ...
ROW 06 : ... .. . ... : ... .. . ... ... : ... .. . ... : ... .. . ... : ... .. . ...
ROW 07 : ... .. . ... : ... .. . ... ... : ... .. . ... : ... .. . ... : ... .. . ...
ROW 08 : C-3 00 . ... : F-4 09 E G01 ... : ... .. . ... : ... .. . ... : ... .. . ...
ROW 09 : ... .. . ... : ... .. . ... ... : ... .. . ... : ... .. . ... : ... .. . ...
ROW 0A : ... .. . ... : ... .. . ... ... : ... .. . ... : ... .. . ... : ... .. . ...
ROW 0B : ... .. . ... : ... .. . ... ... : ... .. . ... : ... .. . ... : ... .. . ...
ROW 0C : ... .. . ... : ... .. . ... ... : D-2 02 F ... : ... .. . ... : ... .. . ...
ROW 0D : ... .. . ... : ... .. . ... ... : ... .. . ... : ... .. . ... : ... .. . ...
ROW 0E : ... .. . ... : ... .. . ... ... : ... .. . ... : ... .. . ... : ... .. . ...
ROW 0F : ... .. . ... : ... .. . ... ... : ... .. . ... : ... .. . ... : ... .. . ...
ROW 10 : D-3 00 . ... : E-4 09 E G01 ... : ... .. . ... : ... .. . ... : ... .. . ...
ROW 11 : ... .. . ... : ... .. . ... ... : ... .. . ... : ... .. . ... : ... .. . ...
ROW 12 : ... .. . ... : ... .. . ... ... : ... .. . ... : ... .. . ... : ... .. . ...
ROW 13 : ... .. . ... : ... .. . ... ... : ... .. . ... : ... .. . ... : ... .. . ...
ROW 14 : ... .. . ... : ... .. . ... ... : G-2 02 F ... : ... .. . ... : ... .. . ...
ROW 15 : ... .. . ... : ... .. . ... ... : ... .. . ... : ... .. . ... : ... .. . ...
ROW 16 : E-3 00 . ... : ... .. . ... ... : ... .. . ... : ... .. . ... : ... .. . ...
ROW 17 : ... .. . ... : ... .. . ... ... : ... .. . ... : ... .. . ... : ... .. . ...
ROW 18 : ... .. . ... : F-4 09 E G01 ... : ... .. . ... : ... .. . ... : ... .. . ...
ROW 19 : ... .. . ... : ... .. . ... ... : ... .. . ... : ... .. . ... : ... .. . ...
ROW 1A : ... .. . ... : ... .. . ... ... : ... .. . ... : ... .. . ... : ... .. . ...
ROW 1B : ... .. . ... : ... .. . ... ... : ... .. . ... : ... .. . ... : ... .. . ...
ROW 1C : A-2 00 . ... : D-4 09 E G01 ... : D-2 02 F ... : ... .. . ... : ... .. . ...
ROW 1D : ... .. . ... : ... .. . ... ... : ... .. . ... : ... .. . ... : ... .. . ...
ROW 1E : ... .. . ... : ... .. . ... ... : ... .. . ... : ... .. . ... : ... .. . ...
ROW 1F : ... .. . ... : ... .. . ... ... : ... .. . ... : ... .. . ... : ... .. . ...
ROW 20 : G-2 00 . ... : ... .. . ... ... : G-2 02 F ... : ... .. . ... : ... .. . ...
ROW 21 : ... .. . ... : ... .. . ... ... : ... .. . ... : ... .. . ... : ... .. . ...
ROW 22 : ... .. . ... : ... .. . ... ... : ... .. . ... : ... .. . ... : ... .. . ...
ROW 23 : ... .. . ... : ... .. . ... ... : --- .. . ... : ... .. . ... : ... .. . ...
ROW 24 : ... .. . ... : ... .. . ... ... : G-2 03 F ... : ... .. . ... : ... .. . ...
ROW 25 : ... .. . ... : ... .. . ... ... : ... .. . ... : ... .. . ... : ... .. . ...
ROW 26 : ... .. . ... : ... .. . ... ... : ... .. . ... : ... .. . ... : ... .. . ...
ROW 27 : ... .. . ... : ... .. . ... ... : ... .. . ... : ... .. . ... : ... .. . ...
ROW 28 : C-3 00 . ... : D-4 09 E G01 ... : ... .. . ... : ... .. . ... : ... .. . ...
ROW 29 : ... .. . ... : ... .. . ... ... : ... .. . ... : ... .. . ... : ... .. . ...
ROW 2A : ... .. . ... : ... .. . ... ... : ... .. . ... : ... .. . ... : ... .. . ...
ROW 2B : ... .. . ... : ... .. . ... ... : ... .. . ... : ... .. . ... : ... .. . ...
ROW 2C : ... .. . ... : ... .. . ... ... : G-2 02 F ... : ... .. . ... : ... .. . ...
ROW 2D : ... .. . ... : ... .. . ... ... : ... .. . ... : ... .. . ... : ... .. . ...
ROW 2E : ... .. . ... : ... .. . ... ... : ... .. . ... : ... .. . ... : ... .. . ...
ROW 2F : ... .. . ... : ... .. . ... ... : ... .. . ... : ... .. . ... : ... .. . ...
ROW 30 : F-3 00 . ... : D-4 09 E G01 ... : ... .. . ... : ... .. . ... : ... .. . ...
ROW 31 : ... .. . ... : ... .. . ... ... : ... .. . ... : ... .. . ... : ... .. . ...
ROW 32 : ... .. . ... : ... .. . ... ... : ... .. . ... : ... .. . ... : ... .. . ...
ROW 33 : ... .. . ... : ... .. . ... ... : ... .. . ... : ... .. . ... : ... .. . ...
ROW 34 : ... .. . ... : ... .. . ... ... : A-2 02 F ... : ... .. . ... : ... .. . ...
ROW 35 : ... .. . ... : ... .. . ... ... : ... .. . ... : ... .. . ... : ... .. . ...
ROW 36 : E-3 00 . ... : E-4 09 E G01 ... : ... .. . ... : ... .. . ... : ... .. . ...
ROW 37 : ... .. . ... : ... .. . ... ... : ... .. . ... : ... .. . ... : ... .. . ...
ROW 38 : ... .. . ... : ... .. . ... ... : ... .. . ... : ... .. . ... : ... .. . ...
ROW 39 : ... .. . ... : ... .. . ... ... : ... .. . ... : ... .. . ... : ... .. . ...
ROW 3A : ... .. . ... : ... .. . ... ... : ... .. . ... : ... .. . ... : ... .. . ...
ROW 3B : ... .. . ... : ... .. . ... ... : ... .. . ... : ... .. . ... : ... .. . ...
ROW 3C : C-3 00 . ... : D-4 09 E G01 ... : B-2 02 F ... : ... .. . ... : ... .. . ...
ROW 3D : ... .. . ... : ... .. . ... ... : ... .. . ... : ... .. . ... : ... .. . ...
ROW 3E : ... .. . ... : ... .. . ... ... : ... .. . ... : ... .. . ... : ... .. . ...
ROW 3F : ... .. . ... : ... .. . ... ... : ... .. . ... : ... .. . ... : ... .. . ...

PATTERN 0F
ROW 00 : G-2 00 8 ... : ... .. C G01 ... : G-2 02 F ... : ... .. . ... : ... .. . ...
ROW 01 : ... .. . ... : ... .. . ... ... : ... .. . ... : ... .. . ... : ... .. . ...
ROW 02 : ... .. . ... : ... .. . ... ... : ... .. . ... : ... .. . ... : ... .. . ...
ROW 03 : ... .. . ... : ... .. . ... ... : --- 02 . ... : ... .. . ... : ... .. . ...
ROW 04 : ... .. 7 ... : ... .. . ... ... : G-2 03 F ... : ... .. . ... : ... .. . ...
ROW 05 : ... .. . ... : ... .. . ... ... : ... .. . ... : ... .. . ... : ... .. . ...
ROW 06 : ... .. . ... : ... .. . ... 484 : ... .. . ... : ... .. . ... : ... .. . ...
ROW 07 : ... .. . ... : ... .. . ... ... : ... .. . ... : ... .. . ... : ... .. . ...
ROW 08 : C-3 00 7 ... : ... .. . ... ... : ... .. . ... : ... .. . ... : ... .. . ...
ROW 09 : ... .. . ... : ... .. . ... ... : ... .. . ... : ... .. . ... : ... .. . ...
ROW 0A : ... .. . ... : ... .. . ... ... : ... .. . ... : ... .. . ... : ... .. . ...
ROW 0B : ... .. . ... : ... .. . ... ... : ... .. . ... : ... .. . ... : ... .. . ...
ROW 0C : ... .. . ... : ... .. A ... ... : E-2 02 F ... : ... .. . ... : ... .. . ...
ROW 0D : ... .. . ... : ... .. . ... ... : ... .. . ... : ... .. . ... : ... .. . ...
ROW 0E : ... .. . ... : ... .. . ... ... : ... .. . ... : ... .. . ... : ... .. . ...
ROW 0F : ... .. . ... : ... .. . ... ... : ... .. . ... : ... .. . ... : ... .. . ...
ROW 10 : D-3 00 7 ... : ... .. . ... ... : ... .. . ... : ... .. . ... : ... .. . ...
ROW 11 : ... .. . ... : ... .. . ... ... : ... .. . ... : ... .. . ... : ... .. . ...
ROW 12 : ... .. . ... : ... .. . ... ... : ... .. . ... : ... .. . ... : ... .. . ...
ROW 13 : ... .. . ... : ... .. . ... ... : ... .. . ... : ... .. . ... : ... .. . ...
ROW 14 : ... .. . ... : ... .. . ... ... : G-2 02 F ... : ... .. . ... : ... .. . ...
ROW 15 : ... .. . ... : ... .. . ... ... : ... .. . ... : ... .. . ... : ... .. . ...
ROW 16 : E-3 00 7 ... : ... .. . ... ... : ... .. . ... : ... .. . ... : ... .. . ...
ROW 17 : ... .. . ... : ... .. . ... ... : ... .. . ... : ... .. . ... : ... .. . ...
ROW 18 : ... .. . ... : ... .. 8 ... ... : ... .. . ... : ... .. . ... : ... .. . ...
ROW 19 : ... .. . ... : ... .. . ... ... : ... .. . ... : ... .. . ... : ... .. . ...
ROW 1A : ... .. . ... : ... .. . ... ... : ... .. . ... : ... .. . ... : ... .. . ...
ROW 1B : ... .. . ... : ... .. . ... ... : ... .. . ... : ... .. . ... : ... .. . ...
ROW 1C : G-2 00 7 ... : ... .. . ... ... : E-2 02 F ... : ... .. . ... : ... .. . ...
ROW 1D : ... .. . ... : ... .. . ... ... : ... .. . ... : ... .. . ... : ... .. . ...
ROW 1E : ... .. . ... : ... .. . ... ... : ... .. . ... : ... .. . ... : ... .. . ...
ROW 1F : ... .. . ... : ... .. . ... ... : ... .. . ... : ... .. . ... : ... .. . ...
ROW 20 : G#2 00 7 ... : ... .. 4 G01 ... : G-2 02 F ... : ... .. . ... : ... .. . ...
ROW 21 : ... .. . ... : --- 09 0 G01 400 : ... .. . ... : ... .. . ... : ... .. . ...
ROW 22 : ... .. . ... : ... .. . ... ... : ... .. . ... : ... .. . ... : ... .. . ...
ROW 23 : ... .. . ... : ... .. . ... ... : --- .. . ... : ... .. . ... : ... .. . ...
ROW 24 : ... .. . ... : ... .. . ... ... : G-2 03 F ... : ... .. . ... : ... .. . ...
ROW 25 : ... .. . ... : ... .. . ... ... : ... .. . ... : ... .. . ... : ... .. . ...
ROW 26 : ... .. . ... : ... .. . ... ... : ... .. . ... : ... .. . ... : ... .. . ...
ROW 27 : ... .. . ... : ... .. . ... ... : ... .. . ... : ... .. . ... : ... .. . ...
ROW 28 : C-3 00 7 ... : ... .. . ... ... : ... .. . ... : ... .. . ... : ... .. . ...
ROW 29 : ... .. . ... : ... .. . ... ... : ... .. . ... : ... .. . ... : ... .. . ...
ROW 2A : ... .. . ... : ... .. . ... ... : ... .. . ... : ... .. . ... : ... .. . ...
ROW 2B : ... .. . ... : ... .. . ... ... : ... .. . ... : ... .. . ... : ... .. . ...
ROW 2C : ... .. . ... : ... .. . ... ... : C-3 02 F ... : ... .. . ... : ... .. . ...
ROW 2D : ... .. . ... : ... .. . ... ... : ... .. . ... : ... .. . ... : ... .. . ...
ROW 2E : ... .. . ... : ... .. . ... ... : ... .. . ... : ... .. . ... : ... .. . ...
ROW 2F : ... .. . ... : ... .. . ... ... : ... .. . ... : ... .. . ... : ... .. . ...
ROW 30 : D-3 00 7 ... : ... .. . ... ... : ... .. . ... : ... .. . ... : ... .. . ...
ROW 31 : ... .. . ... : ... .. . ... ... : ... .. . ... : ... .. . ... : ... .. . ...
ROW 32 : ... .. . ... : ... .. . ... ... : ... .. . ... : ... .. . ... : ... .. . ...
ROW 33 : ... .. . ... : ... .. . ... ... : ... .. . ... : ... .. . ... : ... .. . ...
ROW 34 : ... .. . ... : ... .. . ... ... : D-3 02 F ... : ... .. . ... : ... .. . ...
ROW 35 : ... .. . ... : ... .. . ... ... : ... .. . ... : ... .. . ... : ... .. . ...
ROW 36 : E-3 00 7 ... : ... .. . ... ... : ... .. . ... : ... .. . ... : ... .. . ...
ROW 37 : ... .. . ... : ... .. . ... ... : ... .. . ... : ... .. . ... : ... .. . ...
ROW 38 : ... .. . ... : ... .. . ... ... : ... .. . ... : ... .. . ... : ... .. . ...
ROW 39 : ... .. . ... : ... .. . ... ... : ... .. . ... : ... .. . ... : ... .. . ...
ROW 3A : ... .. . ... : ... .. . ... ... : ... .. . ... : ... .. . ... : ... .. . ...
ROW 3B : ... .. . ... : ... .. . ... ... : ... .. . ... : ... .. . ... : ... .. . ...
ROW 3C : G#2 00 7 ... : ... .. . ... ... : E-3 02 F ... : ... .. . ... : ... .. . ...
ROW 3D : ... .. . ... : ... .. . ... ... : ... .. . ... : ... .. . ... : ... .. . ...
ROW 3E : ... .. . ... : ... .. . ... ... : ... .. . ... : ... .. . ... : ... .. . ...
ROW 3F : ... .. . ... : ... .. . ... ... : ... .. . ... : ... .. . ... : ... .. . ...

PATTERN 10
ROW 00 : G-2 00 7 ... : --- .. . ... ... : G-2 02 F ... : ... .. . ... : ... .. . ...
ROW 01 : ... .. . ... : ... .. . ... ... : ... .. . ... : ... .. . ... : ... .. . ...
ROW 02 : ... .. . ... : ... .. . ... ... : ... .. . ... : ... .. . ... : ... .. . ...
ROW 03 : ... .. . ... : ... .. . ... ... : --- .. . ... : ... .. . ... : ... .. . ...
ROW 04 : ... .. . ... : ... .. . ... ... : G-2 03 F ... : ... .. . ... : ... .. . ...
ROW 05 : ... .. . ... : ... .. . ... ... : ... .. . ... : ... .. . ... : ... .. . ...
ROW 06 : ... .. . ... : ... .. . ... ... : ... .. . ... : ... .. . ... : ... .. . ...
ROW 07 : ... .. . ... : ... .. . ... ... : ... .. . ... : ... .. . ... : ... .. . ...
ROW 08 : E-3 00 7 ... : ... .. . ... ... : ... .. . ... : ... .. . ... : ... .. . ...
ROW 09 : ... .. . ... : ... .. . ... ... : ... .. . ... : ... .. . ... : ... .. . ...
ROW 0A : ... .. . ... : ... .. . ... ... : ... .. . ... : ... .. . ... : ... .. . ...
ROW 0B : ... .. . ... : ... .. . ... ... : ... .. . ... : ... .. . ... : ... .. . ...
ROW 0C : ... .. . ... : ... .. . ... ... : E-2 02 F ... : ... .. . ... : ... .. . ...
ROW 0D : ... .. . ... : ... .. . ... ... : ... .. . ... : ... .. . ... : ... .. . ...
ROW 0E : ... .. . ... : ... .. . ... ... : ... .. . ... : ... .. . ... : ... .. . ...
ROW 0F : ... .. . ... : ... .. . ... ... : ... .. . ... : ... .. . ... : ... .. . ...
ROW 10 : F-3 00 7 ... : ... .. . ... ... : ... .. . ... : ... .. . ... : ... .. . ...
ROW 11 : ... .. . ... : ... .. . ... ... : ... .. . ... : ... .. . ... : ... .. . ...
ROW 12 : ... .. . ... : ... .. . ... ... : ... .. . ... : ... .. . ... : ... .. . ...
ROW 13 : ... .. . ... : ... .. . ... ... : ... .. . ... : ... .. . ... : ... .. . ...
ROW 14 : ... .. . ... : ... .. . ... ... : G-2 02 F ... : ... .. . ... : ... .. . ...
ROW 15 : ... .. . ... : ... .. . ... ... : ... .. . ... : ... .. . ... : ... .. . ...
ROW 16 : G-3 00 7 ... : ... .. . ... ... : ... .. . ... : ... .. . ... : ... .. . ...
ROW 17 : ... .. . ... : ... .. . ... ... : ... .. . ... : ... .. . ... : ... .. . ...
ROW 18 : ... .. . ... : ... .. . ... ... : ... .. . ... : ... .. . ... : ... .. . ...
ROW 19 : ... .. . ... : ... .. . ... ... : ... .. . ... : ... .. . ... : ... .. . ...
ROW 1A : ... .. . ... : ... .. . ... ... : ... .. . ... : ... .. . ... : ... .. . ...
ROW 1B : ... .. . ... : ... .. . ... ... : ... .. . ... : ... .. . ... : ... .. . ...
ROW 1C : E-3 00 7 ... : ... .. . ... ... : E-2 02 F ... : ... .. . ... : ... .. . ...
ROW 1D : ... .. . ... : ... .. . ... ... : ... .. . ... : ... .. . ... : ... .. . ...
ROW 1E : ... .. . ... : ... .. . ... ... : ... .. . ... : ... .. . ... : ... .. . ...
ROW 1F : ... .. . ... : ... .. . ... ... : ... .. . ... : ... .. . ... : ... .. . ...
ROW 20 : F-3 00 7 ... : ... .. . ... ... : D-2 02 F ... : ... .. . ... : ... .. . ...
ROW 21 : ... .. . ... : ... .. . ... ... : ... .. . ... : ... .. . ... : ... .. . ...
ROW 22 : ... .. . ... : ... .. . ... ... : ... .. . ... : ... .. . ... : ... .. . ...
ROW 23 : ... .. . ... : ... .. . ... ... : --- .. . ... : ... .. . ... : ... .. . ...
ROW 24 : ... .. . ... : ... .. . ... ... : D-2 03 F ... : ... .. . ... : ... .. . ...
ROW 25 : ... .. . ... : ... .. . ... ... : ... .. . ... : ... .. . ... : ... .. . ...
ROW 26 : ... .. . ... : ... .. . ... ... : ... .. . ... : ... .. . ... : ... .. . ...
ROW 27 : ... .. . ... : ... .. . ... ... : ... .. . ... : ... .. . ... : ... .. . ...
ROW 28 : E-3 00 7 ... : ... .. . ... ... : ... .. . ... : ... .. . ... : ... .. . ...
ROW 29 : ... .. . ... : ... .. . ... ... : ... .. . ... : ... .. . ... : ... .. . ...
ROW 2A : ... .. . ... : ... .. . ... ... : ... .. . ... : ... .. . ... : ... .. . ...
ROW 2B : ... .. . ... : ... .. . ... ... : ... .. . ... : ... .. . ... : ... .. . ...
ROW 2C : ... .. . ... : ... .. . ... ... : G-2 02 F ... : ... .. . ... : ... .. . ...
ROW 2D : ... .. . ... : ... .. . ... ... : ... .. . ... : ... .. . ... : ... .. . ...
ROW 2E : ... .. . ... : ... .. . ... ... : ... .. . ... : ... .. . ... : ... .. . ...
ROW 2F : ... .. . ... : ... .. . ... ... : ... .. . ... : ... .. . ... : ... .. . ...
ROW 30 : C-3 00 7 ... : ... .. . ... ... : ... .. . ... : ... .. . ... : ... .. . ...
ROW 31 : ... .. . ... : ... .. . ... ... : ... .. . ... : ... .. . ... : ... .. . ...
ROW 32 : ... .. . ... : ... .. . ... ... : ... .. . ... : ... .. . ... : ... .. . ...
ROW 33 : ... .. . ... : ... .. . ... ... : ... .. . ... : ... .. . ... : ... .. . ...
ROW 34 : ... .. . ... : ... .. . ... ... : A-2 02 F ... : ... .. . ... : ... .. . ...
ROW 35 : ... .. . ... : ... .. . ... ... : ... .. . ... : ... .. . ... : ... .. . ...
ROW 36 : A-2 00 7 ... : ... .. . ... ... : ... .. . ... : ... .. . ... : ... .. . ...
ROW 37 : ... .. . ... : ... .. . ... ... : ... .. . ... : ... .. . ... : ... .. . ...
ROW 38 : ... .. . ... : ... .. . ... ... : ... .. . ... : ... .. . ... : ... .. . ...
ROW 39 : ... .. . ... : ... .. . ... ... : ... .. . ... : ... .. . ... : ... .. . ...
ROW 3A : ... .. . ... : ... .. . ... ... : ... .. . ... : ... .. . ... : ... .. . ...
ROW 3B : ... .. . ... : ... .. . ... ... : ... .. . ... : ... .. . ... : ... .. . ...
ROW 3C : G#2 00 7 ... : ... .. . ... ... : B-2 02 F ... : ... .. . ... : ... .. . ...
ROW 3D : ... .. . ... : ... .. . ... ... : ... .. . ... : ... .. . ... : ... .. . ...
ROW 3E : ... .. . ... : ... .. . ... ... : ... .. . ... : ... .. . ... : ... .. . ...
ROW 3F : ... .. . ... : ... .. . B01 ... : ... .. . B01 : ... .. . ... : ... .. . ...

PATTERN 11
ROW 00 : A-2 00 7 ... : --- .. . ... ... : --- .. . ... : ... .. . ... : ... .. . ...
ROW 01 : ... .. . ... : ... .. . ... ... : ... .. . ... : ... .. . ... : ... .. . ...
ROW 02 : ... .. . ... : ... .. . ... ... : ... .. . ... : ... .. . ... : ... .. . ...
ROW 03 : ... .. . ... : ... .. . ... ... : ... .. . ... : ... .. . ... : ... .. . ...
ROW 04 : ... .. . ... : ... .. . ... ... : ... .. . ... : ... .. . ... : ... .. . ...
ROW 05 : ... .. . ... : ... .. . ... ... : ... .. . ... : ... .. . ... : ... .. . ...
ROW 06 : ... .. . ... : ... .. . ... ... : ... .. . ... : ... .. . ... : ... .. . ...
ROW 07 : ... .. . ... : ... .. . ... ... : ... .. . ... : ... .. . ... : ... .. . ...
ROW 08 : C-3 00 7 ... : ... .. . ... ... : ... .. . ... : ... .. . ... : ... .. . ...
ROW 09 : ... .. . ... : ... .. . ... ... : ... .. . ... : ... .. . ... : ... .. . ...
ROW 0A : ... .. . ... : ... .. . ... ... : ... .. . ... : ... .. . ... : ... .. . ...
ROW 0B : ... .. . ... : ... .. . ... ... : ... .. . ... : ... .. . ... : ... .. . ...
ROW 0C : ... .. . ... : ... .. . ... ... : ... .. . ... : ... .. . ... : ... .. . ...
ROW 0D : ... .. . ... : ... .. . ... ... : ... .. . ... : ... .. . ... : ... .. . ...
ROW 0E : ... .. . ... : ... .. . ... ... : ... .. . ... : ... .. . ... : ... .. . ...
ROW 0F : ... .. . ... : ... .. . ... ... : ... .. . ... : ... .. . ... : ... .. . ...
ROW 10 : D-3 00 7 ... : ... .. . ... ... : ... .. . ... : ... .. . ... : ... .. . ...
ROW 11 : ... .. . ... : ... .. . ... ... : ... .. . ... : ... .. . ... : ... .. . ...
ROW 12 : ... .. . ... : ... .. . ... ... : ... .. . ... : ... .. . ... : ... .. . ...
ROW 13 : ... .. . ... : ... .. . ... ... : ... .. . ... : ... .. . ... : ... .. . ...
ROW 14 : ... .. . ... : ... .. . ... ... : ... .. . ... : ... .. . ... : ... .. . ...
ROW 15 : ... .. . ... : ... .. . ... ... : ... .. . ... : ... .. . ... : ... .. . ...
ROW 16 : F-3 00 7 ... : ... .. . ... ... : ... .. . ... : ... .. . ... : ... .. . ...
ROW 17 : ... .. . ... : ... .. . ... ... : ... .. . ... : ... .. . ... : ... .. . ...
ROW 18 : ... .. . ... : ... .. . ... ... : ... .. . ... : ... .. . ... : ... .. . ...
ROW 19 : ... .. . ... : ... .. . ... ... : ... .. . ... : ... .. . ... : ... .. . ...
ROW 1A : ... .. . ... : ... .. . ... ... : ... .. . ... : ... .. . ... : ... .. . ...
ROW 1B : ... .. . ... : ... .. . ... ... : ... .. . ... : ... .. . ... : ... .. . ...
ROW 1C : G-2 00 7 ... : ... .. . ... ... : ... .. . ... : ... .. . ... : ... .. . ...
ROW 1D : ... .. . ... : ... .. . ... ... : ... .. . ... : ... .. . ... : ... .. . ...
ROW 1E : ... .. . ... : ... .. . ... ... : ... .. . ... : ... .. . ... : ... .. . ...
ROW 1F : ... .. . ... : ... .. . ... ... : ... .. . ... : ... .. . ... : ... .. . ...
ROW 20 : A-2 00 7 ... : ... .. . ... ... : ... .. . ... : ... .. . ... : ... .. . ...
ROW 21 : ... .. . ... : ... .. . ... ... : ... .. . ... : ... .. . ... : ... .. . ...
ROW 22 : ... .. . ... : ... .. . ... ... : ... .. . ... : ... .. . ... : ... .. . ...
ROW 23 : ... .. . ... : ... .. . ... ... : ... .. . ... : ... .. . ... : ... .. . ...
ROW 24 : ... .. . ... : ... .. . ... ... : ... .. . ... : ... .. . ... : ... .. . ...
ROW 25 : ... .. . ... : ... .. . ... ... : ... .. . ... : ... .. . ... : ... .. . ...
ROW 26 : ... .. . ... : ... .. . ... ... : ... .. . ... : ... .. . ... : ... .. . ...
ROW 27 : ... .. . ... : ... .. . ... ... : ... .. . ... : ... .. . ... : ... .. . ...
ROW 28 : C-3 00 7 ... : ... .. . ... ... : ... .. . ... : ... .. . ... : ... .. . ...
ROW 29 : ... .. . ... : ... .. . ... ... : ... .. . ... : ... .. . ... : ... .. . ...
ROW 2A : ... .. . ... : ... .. . ... ... : ... .. . ... : ... .. . ... : ... .. . ...
ROW 2B : ... .. . ... : ... .. . ... ... : ... .. . ... : ... .. . ... : ... .. . ...
ROW 2C : ... .. . ... : ... .. . ... ... : ... .. . ... : ... .. . ... : ... .. . ...
ROW 2D : ... .. . ... : ... .. . ... ... : ... .. . ... : ... .. . ... : ... .. . ...
ROW 2E : ... .. . ... : ... .. . ... ... : ... .. . ... : ... .. . ... : ... .. . ...
ROW 2F : ... .. . ... : ... .. . ... ... : ... .. . ... : ... .. . ... : ... .. . ...
ROW 30 : D-3 00 7 ... : ... .. . ... ... : ... .. . ... : ... .. . ... : ... .. . ...
ROW 31 : ... .. . ... : ... .. . ... ... : ... .. . ... : ... .. . ... : ... .. . ...
ROW 32 : ... .. . ... : ... .. . ... ... : ... .. . ... : ... .. . ... : ... .. . ...
ROW 33 : ... .. . ... : ... .. . ... ... : ... .. . ... : ... .. . ... : ... .. . ...
ROW 34 : ... .. . ... : ... .. . ... ... : ... .. . ... : ... .. . ... : ... .. . ...
ROW 35 : ... .. . ... : ... .. . ... ... : ... .. . ... : ... .. . ... : ... .. . ...
ROW 36 : F-3 00 7 ... : ... .. . ... ... : ... .. . ... : ... .. . ... : ... .. . ...
ROW 37 : ... .. . ... : ... .. . ... ... : ... .. . ... : ... .. . ... : ... .. . ...
ROW 38 : ... .. . ... : ... .. . ... ... : ... .. . ... : ... .. . ... : ... .. . ...
ROW 39 : ... .. . ... : ... .. . ... ... : ... .. . ... : ... .. . ... : ... .. . ...
ROW 3A : ... .. . ... : ... .. . ... ... : ... .. . ... : ... .. . ... : ... .. . ...
ROW 3B : ... .. . ... : ... .. . ... ... : ... .. . ... : ... .. . ... : ... .. . ...
ROW 3C : A-2 00 7 ... : ... .. . ... ... : ... .. . ... : ... .. . ... : ... .. . ...
ROW 3D : ... .. . ... : ... .. . ... ... : ... .. . ... : ... .. . ... : ... .. . ...
ROW 3E : ... .. . ... : ... .. . ... ... : ... .. . ... : ... .. . ... : ... .. . ...
ROW 3F : ... .. . ... : ... .. . ... C00 : ... .. . C00 : ... .. . ... : ... .. . ...

PATTERN 12
ROW 00 : B-2 00 7 ... : ... .. . ... ... : ... .. . ... : ... .. . ... : ... .. . ...
ROW 01 : ... .. . ... : ... .. . ... ... : ... .. . ... : ... .. . ... : ... .. . ...
ROW 02 : ... .. . ... : ... .. . ... ... : ... .. . ... : ... .. . ... : ... .. . ...
ROW 03 : ... .. . ... : ... .. . ... ... : ... .. . ... : ... .. . ... : ... .. . ...
ROW 04 : ... .. . ... : ... .. . ... ... : ... .. . ... : ... .. . ... : ... .. . ...
ROW 05 : ... .. . ... : ... .. . ... ... : ... .. . ... : ... .. . ... : ... .. . ...
ROW 06 : ... .. . ... : ... .. . ... ... : ... .. . ... : ... .. . ... : ... .. . ...
ROW 07 : ... .. . ... : ... .. . ... ... : ... .. . ... : ... .. . ... : ... .. . ...
ROW 08 : E-3 00 7 ... : ... .. . ... ... : ... .. . ... : ... .. . ... : ... .. . ...
ROW 09 : ... .. . ... : ... .. . ... ... : ... .. . ... : ... .. . ... : ... .. . ...
ROW 0A : ... .. . ... : ... .. . ... ... : ... .. . ... : ... .. . ... : ... .. . ...
ROW 0B : ... .. . ... : ... .. . ... ... : ... .. . ... : ... .. . ... : ... .. . ...
ROW 0C : ... .. . ... : ... .. . ... ... : ... .. . ... : ... .. . ... : ... .. . ...
ROW 0D : ... .. . ... : ... .. . ... ... : ... .. . ... : ... .. . ... : ... .. . ...
ROW 0E : ... .. . ... : ... .. . ... ... : ... .. . ... : ... .. . ... : ... .. . ...
ROW 0F : ... .. . ... : ... .. . ... ... : ... .. . ... : ... .. . ... : ... .. . ...
ROW 10 : F-3 00 7 ... : ... .. . ... ... : ... .. . ... : ... .. . ... : ... .. . ...
ROW 11 : ... .. . ... : ... .. . ... ... : ... .. . ... : ... .. . ... : ... .. . ...
ROW 12 : ... .. . ... : ... .. . ... ... : ... .. . ... : ... .. . ... : ... .. . ...
ROW 13 : ... .. . ... : ... .. . ... ... : ... .. . ... : ... .. . ... : ... .. . ...
ROW 14 : ... .. . ... : ... .. . ... ... : ... .. . ... : ... .. . ... : ... .. . ...
ROW 15 : ... .. . ... : ... .. . ... ... : ... .. . ... : ... .. . ... : ... .. . ...
ROW 16 : G-3 00 7 ... : ... .. . ... ... : ... .. . ... : ... .. . ... : ... .. . ...
ROW 17 : ... .. . ... : ... .. . ... ... : ... .. . ... : ... .. . ... : ... .. . ...
ROW 18 : ... .. . ... : ... .. . ... ... : ... .. . ... : ... .. . ... : ... .. . ...
ROW 19 : ... .. . ... : ... .. . ... ... : ... .. . ... : ... .. . ... : ... .. . ...
ROW 1A : ... .. . ... : ... .. . ... ... : ... .. . ... : ... .. . ... : ... .. . ...
ROW 1B : ... .. . ... : ... .. . ... ... : ... .. . ... : ... .. . ... : ... .. . ...
ROW 1C : E-3 00 7 ... : ... .. . ... ... : ... .. . ... : ... .. . ... : ... .. . ...
ROW 1D : ... .. . ... : ... .. . ... ... : ... .. . ... : ... .. . ... : ... .. . ...
ROW 1E : ... .. . ... : ... .. . ... ... : ... .. . ... : ... .. . ... : ... .. . ...
ROW 1F : ... .. . ... : ... .. . ... ... : ... .. . ... : ... .. . ... : ... .. . ...
ROW 20 : F-3 00 7 ... : ... .. . ... ... : ... .. . ... : ... .. . ... : ... .. . ...
ROW 21 : ... .. . ... : ... .. . ... ... : ... .. . ... : ... .. . ... : ... .. . ...
ROW 22 : ... .. . ... : ... .. . ... ... : ... .. . ... : ... .. . ... : ... .. . ...
ROW 23 : ... .. . ... : ... .. . ... ... : ... .. . ... : ... .. . ... : ... .. . ...
ROW 24 : ... .. . ... : ... .. . ... ... : ... .. . ... : ... .. . ... : ... .. . ...
ROW 25 : ... .. . ... : ... .. . ... ... : ... .. . ... : ... .. . ... : ... .. . ...
ROW 26 : ... .. . ... : ... .. . ... ... : ... .. . ... : ... .. . ... : ... .. . ...
ROW 27 : ... .. . ... : ... .. . ... ... : ... .. . ... : ... .. . ... : ... .. . ...
ROW 28 : E-3 00 7 ... : ... .. . ... ... : ... .. . ... : ... .. . ... : ... .. . ...
ROW 29 : ... .. . ... : ... .. . ... ... : ... .. . ... : ... .. . ... : ... .. . ...
ROW 2A : ... .. . ... : ... .. . ... ... : ... .. . ... : ... .. . ... : ... .. . ...
ROW 2B : ... .. . ... : ... .. . ... ... : ... .. . ... : ... .. . ... : ... .. . ...
ROW 2C : ... .. . ... : ... .. . ... ... : ... .. . ... : ... .. . ... : ... .. . ...
ROW 2D : ... .. . ... : ... .. . ... ... : ... .. . ... : ... .. . ... : ... .. . ...
ROW 2E : ... .. . ... : ... .. . ... ... : ... .. . ... : ... .. . ... : ... .. . ...
ROW 2F : ... .. . ... : ... .. . ... ... : ... .. . ... : ... .. . ... : ... .. . ...
ROW 30 : C-3 00 7 ... : ... .. . ... ... : ... .. . ... : ... .. . ... : ... .. . ...
ROW 31 : ... .. . ... : ... .. . ... ... : ... .. . ... : ... .. . ... : ... .. . ...
ROW 32 : ... .. . ... : ... .. . ... ... : ... .. . ... : ... .. . ... : ... .. . ...
ROW 33 : ... .. . ... : ... .. . ... ... : ... .. . ... : ... .. . ... : ... .. . ...
ROW 34 : ... .. . ... : ... .. . ... ... : ... .. . ... : ... .. . ... : ... .. . ...
ROW 35 : ... .. . ... : ... .. . ... ... : ... .. . ... : ... .. . ... : ... .. . ...
ROW 36 : G#2 00 7 ... : ... .. . ... ... : ... .. . ... : ... .. . ... : ... .. . ...
ROW 37 : ... .. . ... : ... .. . ... ... : ... .. . ... : ... .. . ... : ... .. . ...
ROW 38 : ... .. . ... : ... .. . ... ... : ... .. . ... : ... .. . ... : ... .. . ...
ROW 39 : ... .. . ... : ... .. . ... ... : ... .. . ... : ... .. . ... : ... .. . ...
ROW 3A : ... .. . ... : ... .. . ... ... : ... .. . ... : ... .. . ... : ... .. . ...
ROW 3B : ... .. . ... : ... .. . ... ... : ... .. . ... : ... .. . ... : ... .. . ...
ROW 3C : G-2 00 7 ... : ... .. . ... ... : ... .. . ... : ... .. . ... : ... .. . ...
ROW 3D : ... .. . ... : ... .. . ... ... : ... .. . ... : ... .. . ... : ... .. . ...
ROW 3E : ... .. . ... : ... .. . ... ... : ... .. . ... : ... .. . ... : ... .. . ...
ROW 3F : ... .. . ... : ... .. . ... ... : ... .. . ... : ... .. . ... : ... .. . ...

PATTERN 13
ROW 00 : G-2 00 7 ... : ... .. . ... ... : ... .. . ... : ... .. . ... : ... .. . ...
ROW 01 : ... .. . ... : ... .. . ... ... : ... .. . ... : ... .. . ... : ... .. . ...
ROW 02 : ... .. . ... : ... .. . ... ... : ... .. . ... : ... .. . ... : ... .. . ...
ROW 03 : ... .. . ... : ... .. . ... ... : ... .. . ... : ... .. . ... : ... .. . ...
ROW 04 : ... .. . ... : ... .. . ... ... : ... .. . ... : ... .. . ... : ... .. . ...
ROW 05 : ... .. . ... : ... .. . ... ... : ... .. . ... : ... .. . ... : ... .. . ...
ROW 06 : ... .. . ... : ... .. . ... ... : ... .. . ... : ... .. . ... : ... .. . ...
ROW 07 : ... .. . ... : ... .. . ... ... : ... .. . ... : ... .. . ... : ... .. . ...
ROW 08 : C-3 00 7 ... : ... .. . ... ... : ... .. . ... : ... .. . ... : ... .. . ...
ROW 09 : ... .. . ... : ... .. . ... ... : ... .. . ... : ... .. . ... : ... .. . ...
ROW 0A : ... .. . ... : ... .. . ... ... : ... .. . ... : ... .. . ... : ... .. . ...
ROW 0B : ... .. . ... : ... .. . ... ... : ... .. . ... : ... .. . ... : ... .. . ...
ROW 0C : ... .. . ... : ... .. . ... ... : ... .. . ... : ... .. . ... : ... .. . ...
ROW 0D : ... .. . ... : ... .. . ... ... : ... .. . ... : ... .. . ... : ... .. . ...
ROW 0E : ... .. . ... : ... .. . ... ... : ... .. . ... : ... .. . ... : ... .. . ...
ROW 0F : ... .. . ... : ... .. . ... ... : ... .. . ... : ... .. . ... : ... .. . ...
ROW 10 : D-3 00 7 ... : ... .. . ... ... : ... .. . ... : ... .. . ... : ... .. . ...
ROW 11 : ... .. . ... : ... .. . ... ... : ... .. . ... : ... .. . ... : ... .. . ...
ROW 12 : ... .. . ... : ... .. . ... ... : ... .. . ... : ... .. . ... : ... .. . ...
ROW 13 : ... .. . ... : ... .. . ... ... : ... .. . ... : ... .. . ... : ... .. . ...
ROW 14 : ... .. . ... : ... .. . ... ... : ... .. . ... : ... .. . ... : ... .. . ...
ROW 15 : ... .. . ... : ... .. . ... ... : ... .. . ... : ... .. . ... : ... .. . ...
ROW 16 : E-3 00 7 ... : ... .. . ... ... : ... .. . ... : ... .. . ... : ... .. . ...
ROW 17 : ... .. . ... : ... .. . ... ... : ... .. . ... : ... .. . ... : ... .. . ...
ROW 18 : ... .. . ... : ... .. . ... ... : ... .. . ... : ... .. . ... : ... .. . ...
ROW 19 : ... .. . ... : ... .. . ... ... : ... .. . ... : ... .. . ... : ... .. . ...
ROW 1A : ... .. . ... : ... .. . ... ... : ... .. . ... : ... .. . ... : ... .. . ...
ROW 1B : ... .. . ... : ... .. . ... ... : ... .. . ... : ... .. . ... : ... .. . ...
ROW 1C : A-2 00 7 ... : ... .. . ... ... : ... .. . ... : ... .. . ... : ... .. . ...
ROW 1D : ... .. . ... : ... .. . ... ... : ... .. . ... : ... .. . ... : ... .. . ...
ROW 1E : ... .. . ... : ... .. . ... ... : ... .. . ... : ... .. . ... : ... .. . ...
ROW 1F : ... .. . ... : ... .. . ... ... : ... .. . ... : ... .. . ... : ... .. . ...
ROW 20 : G-2 00 7 ... : ... .. . ... ... : ... .. . ... : ... .. . ... : ... .. . ...
ROW 21 : ... .. . ... : ... .. . ... ... : ... .. . ... : ... .. . ... : ... .. . ...
ROW 22 : ... .. . ... : ... .. . ... ... : ... .. . ... : ... .. . ... : ... .. . ...
ROW 23 : ... .. . ... : ... .. . ... ... : ... .. . ... : ... .. . ... : ... .. . ...
ROW 24 : ... .. . ... : ... .. . ... ... : ... .. . ... : ... .. . ... : ... .. . ...
ROW 25 : ... .. . ... : ... .. . ... ... : ... .. . ... : ... .. . ... : ... .. . ...
ROW 26 : ... .. . ... : ... .. . ... ... : ... .. . ... : ... .. . ... : ... .. . ...
ROW 27 : ... .. . ... : ... .. . ... ... : ... .. . ... : ... .. . ... : ... .. . ...
ROW 28 : C-3 00 7 ... : ... .. . ... ... : ... .. . ... : ... .. . ... : ... .. . ...
ROW 29 : ... .. . ... : ... .. . ... ... : ... .. . ... : ... .. . ... : ... .. . ...
ROW 2A : ... .. . ... : ... .. . ... ... : ... .. . ... : ... .. . ... : ... .. . ...
ROW 2B : ... .. . ... : ... .. . ... ... : ... .. . ... : ... .. . ... : ... .. . ...
ROW 2C : ... .. . ... : ... .. . ... ... : ... .. . ... : ... .. . ... : ... .. . ...
ROW 2D : ... .. . ... : ... .. . ... ... : ... .. . ... : ... .. . ... : ... .. . ...
ROW 2E : ... .. . ... : ... .. . ... ... : ... .. . ... : ... .. . ... : ... .. . ...
ROW 2F : ... .. . ... : ... .. . ... ... : ... .. . ... : ... .. . ... : ... .. . ...
ROW 30 : G-3 00 7 ... : ... .. . ... ... : ... .. . ... : ... .. . ... : ... .. . ...
ROW 31 : ... .. . ... : ... .. . ... ... : ... .. . ... : ... .. . ... : ... .. . ...
ROW 32 : ... .. . ... : ... .. . ... ... : ... .. . ... : ... .. . ... : ... .. . ...
ROW 33 : ... .. . ... : ... .. . ... ... : ... .. . ... : ... .. . ... : ... .. . ...
ROW 34 : ... .. . ... : ... .. . ... ... : ... .. . ... : ... .. . ... : ... .. . ...
ROW 35 : ... .. . ... : ... .. . ... ... : ... .. . ... : ... .. . ... : ... .. . ...
ROW 36 : F-3 00 8 ... : ... .. . ... ... : ... .. . ... : ... .. . ... : ... .. . ...
ROW 37 : ... .. . ... : ... .. . ... ... : ... .. . ... : ... .. . ... : ... .. . ...
ROW 38 : ... .. . ... : ... .. . ... ... : ... .. . ... : ... .. . ... : ... .. . ...
ROW 39 : ... .. . ... : ... .. . ... ... : ... .. . ... : ... .. . ... : ... .. . ...
ROW 3A : ... .. . ... : ... .. . ... ... : ... .. . ... : ... .. . ... : ... .. . ...
ROW 3B : ... .. . ... : ... .. . ... ... : ... .. . ... : ... .. . ... : ... .. . ...
ROW 3C : E-3 00 9 ... : ... .. . ... ... : ... .. . ... : ... .. . ... : ... .. . ...
ROW 3D : ... .. . ... : ... .. . ... ... : ... .. . ... : ... .. . ... : ... .. . ...
ROW 3E : ... .. . ... : ... .. . ... ... : ... .. . ... : ... .. . ... : ... .. . ...
ROW 3F : ... .. . ... : ... .. . ... ... : ... .. . ... : ... .. . ... : ... .. . ...

PATTERN 14
ROW 00 : G-2 00 B ... : ... .. . ... ... : ... .. . ... : ... .. . ... : ... .. . ...
ROW 01 : ... .. . ... : ... .. . ... ... : ... .. . ... : ... .. . ... : ... .. . ...
ROW 02 : ... .. . ... : ... .. . ... ... : ... .. . ... : ... .. . ... : ... .. . ...
ROW 03 : ... .. . ... : ... .. . ... ... : ... .. . ... : ... .. . ... : ... .. . ...
ROW 04 : ... .. . ... : ... .. . ... ... : ... .. . ... : ... .. . ... : ... .. . ...
ROW 05 : ... .. . ... : ... .. . ... ... : ... .. . ... : ... .. . ... : ... .. . ...
ROW 06 : ... .. . ... : ... .. . ... ... : ... .. . ... : ... .. . ... : ... .. . ...
ROW 07 : ... .. . ... : ... .. . ... ... : ... .. . ... : ... .. . ... : ... .. . ...
ROW 08 : C-3 00 B ... : ... .. . ... ... : ... .. . ... : ... .. . ... : ... .. . ...
ROW 09 : ... .. . ... : ... .. . ... ... : ... .. . ... : ... .. . ... : ... .. . ...
ROW 0A : ... .. . ... : ... .. . ... ... : ... .. . ... : ... .. . ... : ... .. . ...
ROW 0B : ... .. . ... : ... .. . ... ... : ... .. . ... : ... .. . ... : ... .. . ...
ROW 0C : ... .. . ... : ... .. . ... ... : ... .. . ... : ... .. . ... : ... .. . ...
ROW 0D : ... .. . ... : ... .. . ... ... : ... .. . ... : ... .. . ... : ... .. . ...
ROW 0E : ... .. . ... : ... .. . ... ... : ... .. . ... : ... .. . ... : ... .. . ...
ROW 0F : ... .. . ... : ... .. . ... ... : ... .. . ... : ... .. . ... : ... .. . ...
ROW 10 : D-3 00 B ... : ... .. . ... ... : ... .. . ... : ... .. . ... : ... .. . ...
ROW 11 : ... .. . ... : ... .. . ... ... : ... .. . ... : ... .. . ... : ... .. . ...
ROW 12 : ... .. . ... : ... .. . ... ... : ... .. . ... : ... .. . ... : ... .. . ...
ROW 13 : ... .. . ... : ... .. . ... ... : ... .. . ... : ... .. . ... : ... .. . ...
ROW 14 : ... .. . ... : ... .. . ... ... : ... .. . ... : ... .. . ... : ... .. . ...
ROW 15 : ... .. . ... : ... .. . ... ... : ... .. . ... : ... .. . ... : ... .. . ...
ROW 16 : E-3 00 B ... : ... .. . ... ... : ... .. . ... : ... .. . ... : ... .. . ...
ROW 17 : ... .. . ... : ... .. . ... ... : ... .. . ... : ... .. . ... : ... .. . ...
ROW 18 : ... .. . ... : ... .. . ... ... : ... .. . ... : ... .. . ... : ... .. . ...
ROW 19 : ... .. . ... : ... .. . ... ... : ... .. . ... : ... .. . ... : ... .. . ...
ROW 1A : ... .. . ... : ... .. . ... ... : ... .. . ... : ... .. . ... : ... .. . ...
ROW 1B : ... .. . ... : ... .. . ... ... : ... .. . ... : ... .. . ... : ... .. . ...
ROW 1C : G-2 00 B ... : ... .. . ... ... : ... .. . ... : ... .. . ... : ... .. . ...
ROW 1D : ... .. . ... : ... .. . ... ... : ... .. . ... : ... .. . ... : ... .. . ...
ROW 1E : ... .. . ... : ... .. . ... ... : ... .. . ... : ... .. . ... : ... .. . ...
ROW 1F : ... .. . ... : ... .. . ... ... : ... .. . ... : ... .. . ... : ... .. . ...
ROW 20 : F-2 00 B ... : ... .. . ... ... : ... .. . ... : ... .. . ... : ... .. . ...
ROW 21 : ... .. . ... : ... .. . ... ... : ... .. . ... : ... .. . ... : ... .. . ...
ROW 22 : ... .. . ... : ... .. . ... ... : ... .. . ... : ... .. . ... : ... .. . ...
ROW 23 : ... .. . ... : ... .. . ... ... : ... .. . ... : ... .. . ... : ... .. . ...
ROW 24 : ... .. . ... : ... .. . ... ... : ... .. . ... : ... .. . ... : ... .. . ...
ROW 25 : ... .. . ... : ... .. . ... ... : ... .. . ... : ... .. . ... : ... .. . ...
ROW 26 : ... .. . ... : ... .. . ... ... : ... .. . ... : ... .. . ... : ... .. . ...
ROW 27 : ... .. . ... : ... .. . ... ... : ... .. . ... : ... .. . ... : ... .. . ...
ROW 28 : C-3 00 B ... : ... .. . ... ... : ... .. . ... : ... .. . ... : ... .. . ...
ROW 29 : ... .. . ... : ... .. . ... ... : ... .. . ... : ... .. . ... : ... .. . ...
ROW 2A : ... .. . ... : ... .. . ... ... : ... .. . ... : ... .. . ... : ... .. . ...
ROW 2B : ... .. . ... : ... .. . ... ... : ... .. . ... : ... .. . ... : ... .. . ...
ROW 2C : ... .. . ... : ... .. . ... ... : ... .. . ... : ... .. . ... : ... .. . ...
ROW 2D : ... .. . ... : ... .. . ... ... : ... .. . ... : ... .. . ... : ... .. . ...
ROW 2E : ... .. . ... : ... .. . ... ... : ... .. . ... : ... .. . ... : ... .. . ...
ROW 2F : ... .. . ... : ... .. . ... ... : ... .. . ... : ... .. . ... : ... .. . ...
ROW 30 : G-3 00 B ... : ... .. . ... ... : ... .. . ... : ... .. . ... : ... .. . ...
ROW 31 : ... .. . ... : ... .. . ... ... : ... .. . ... : ... .. . ... : ... .. . ...
ROW 32 : ... .. . ... : ... .. . ... ... : ... .. . ... : ... .. . ... : ... .. . ...
ROW 33 : ... .. . ... : ... .. . ... ... : ... .. . ... : ... .. . ... : ... .. . ...
ROW 34 : ... .. . ... : ... .. . ... ... : ... .. . ... : ... .. . ... : ... .. . ...
ROW 35 : ... .. . ... : ... .. . ... ... : ... .. . ... : ... .. . ... : ... .. . ...
ROW 36 : F-3 00 B ... : ... .. . ... ... : ... .. . ... : ... .. . ... : ... .. . ...
ROW 37 : ... .. . ... : ... .. . ... ... : ... .. . ... : ... .. . ... : ... .. . ...
ROW 38 : ... .. . ... : ... .. . ... ... : ... .. . ... : ... .. . ... : ... .. . ...
ROW 39 : ... .. . ... : ... .. . ... ... : ... .. . ... : ... .. . ... : ... .. . ...
ROW 3A : ... .. . ... : ... .. . ... ... : ... .. . ... : ... .. . ... : ... .. . ...
ROW 3B : ... .. . ... : ... .. . ... ... : ... .. . ... : ... .. . ... : ... .. . ...
ROW 3C : E-3 00 B ... : ... .. . ... ... : ... .. . ... : ... .. . ... : ... .. . ...
ROW 3D : ... .. . ... : ... .. . ... ... : ... .. . ... : ... .. . ... : ... .. . ...
ROW 3E : ... .. . ... : ... .. . ... ... : ... .. . ... : ... .. . ... : ... .. . ...
ROW 3F : ... .. . B01 : ... .. . ... ... : ... .. . ... : ... .. . ... : ... .. . ...

PATTERN 15
ROW 00 : --- .. . ... : ... .. . ... ... : ... .. . ... : ... .. . ... : ... .. . ...
ROW 01 : ... .. . ... : ... .. . ... ... : ... .. . ... : ... .. . ... : ... .. . ...
ROW 02 : ... .. . ... : ... .. . ... ... : ... .. . ... : ... .. . ... : ... .. . ...
ROW 03 : ... .. . ... : ... .. . ... ... : ... .. . ... : ... .. . ... : ... .. . ...
ROW 04 : ... .. . ... : ... .. . ... ... : ... .. . ... : ... .. . ... : ... .. . ...
ROW 05 : ... .. . ... : ... .. . ... ... : ... .. . ... : ... .. . ... : ... .. . ...
ROW 06 : ... .. . ... : ... .. . ... ... : ... .. . ... : ... .. . ... : ... .. . ...
ROW 07 : ... .. . ... : ... .. . ... ... : ... .. . ... : ... .. . ... : ... .. . ...
ROW 08 : ... .. . ... : ... .. . ... ... : ... .. . ... : ... .. . ... : ... .. . ...
ROW 09 : ... .. . ... : ... .. . ... ... : ... .. . ... : ... .. . ... : ... .. . ...
ROW 0A : ... .. . ... : ... .. . ... ... : ... .. . ... : ... .. . ... : ... .. . ...
ROW 0B : ... .. . ... : ... .. . ... ... : ... .. . ... : ... .. . ... : ... .. . ...
ROW 0C : ... .. . ... : ... .. . ... ... : ... .. . ... : ... .. . ... : ... .. . ...
ROW 0D : ... .. . ... : ... .. . ... ... : ... .. . ... : ... .. . ... : ... .. . ...
ROW 0E : ... .. . ... : ... .. . ... ... : ... .. . ... : ... .. . ... : ... .. . ...
ROW 0F : ... .. . ... : ... .. . ... ... : ... .. . ... : ... .. . ... : ... .. . ...
ROW 10 : ... .. . ... : ... .. . ... ... : ... .. . ... : ... .. . ... : ... .. . ...
ROW 11 : ... .. . ... : ... .. . ... ... : ... .. . ... : ... .. . ... : ... .. . ...
ROW 12 : ... .. . ... : ... .. . ... ... : ... .. . ... : ... .. . ... : ... .. . ...
ROW 13 : ... .. . ... : ... .. . ... ... : ... .. . ... : ... .. . ... : ... .. . ...
ROW 14 : ... .. . ... : ... .. . ... ... : ... .. . ... : ... .. . ... : ... .. . ...
ROW 15 : ... .. . ... : ... .. . ... ... : ... .. . ... : ... .. . ... : ... .. . ...
ROW 16 : ... .. . ... : ... .. . ... ... : ... .. . ... : ... .. . ... : ... .. . ...
ROW 17 : ... .. . ... : ... .. . ... ... : ... .. . ... : ... .. . ... : ... .. . ...
ROW 18 : ... .. . ... : ... .. . ... ... : ... .. . ... : ... .. . ... : ... .. . ...
ROW 19 : ... .. . ... : ... .. . ... ... : ... .. . ... : ... .. . ... : ... .. . ...
ROW 1A : ... .. . ... : ... .. . ... ... : ... .. . ... : ... .. . ... : ... .. . ...
ROW 1B : ... .. . ... : ... .. . ... ... : ... .. . ... : ... .. . ... : ... .. . ...
ROW 1C : ... .. . ... : ... .. . ... ... : ... .. . ... : ... .. . ... : ... .. . ...
ROW 1D : ... .. . ... : ... .. . ... ... : ... .. . ... : ... .. . ... : ... .. . ...
ROW 1E : ... .. . ... : ... .. . ... ... : ... .. . ... : ... .. . ... : ... .. . ...
ROW 1F : ... .. . ... : ... .. . ... ... : ... .. . ... : ... .. . ... : ... .. . ...
ROW 20 : ... .. . ... : ... .. . ... ... : ... .. . ... : ... .. . ... : ... .. . ...
ROW 21 : ... .. . ... : ... .. . ... ... : ... .. . ... : ... .. . ... : ... .. . ...
ROW 22 : ... .. . ... : ... .. . ... ... : ... .. . ... : ... .. . ... : ... .. . ...
ROW 23 : ... .. . ... : ... .. . ... ... : ... .. . ... : ... .. . ... : ... .. . ...
ROW 24 : ... .. . ... : ... .. . ... ... : ... .. . ... : ... .. . ... : ... .. . ...
ROW 25 : ... .. . ... : ... .. . ... ... : ... .. . ... : ... .. . ... : ... .. . ...
ROW 26 : ... .. . ... : ... .. . ... ... : ... .. . ... : ... .. . ... : ... .. . ...
ROW 27 : ... .. . ... : ... .. . ... ... : ... .. . ... : ... .. . ... : ... .. . ...
ROW 28 : ... .. . ... : ... .. . ... ... : ... .. . ... : ... .. . ... : ... .. . ...
ROW 29 : ... .. . ... : ... .. . ... ... : ... .. . ... : ... .. . ... : ... .. . ...
ROW 2A : ... .. . ... : ... .. . ... ... : ... .. . ... : ... .. . ... : ... .. . ...
ROW 2B : ... .. . ... : ... .. . ... ... : ... .. . ... : ... .. . ... : ... .. . ...
ROW 2C : ... .. . ... : ... .. . ... ... : ... .. . ... : ... .. . ... : ... .. . ...
ROW 2D : ... .. . ... : ... .. . ... ... : ... .. . ... : ... .. . ... : ... .. . ...
ROW 2E : ... .. . ... : ... .. . ... ... : ... .. . ... : ... .. . ... : ... .. . ...
ROW 2F : ... .. . ... : ... .. . ... ... : ... .. . ... : ... .. . ... : ... .. . ...
ROW 30 : ... .. . ... : ... .. . ... ... : ... .. . ... : ... .. . ... : ... .. . ...
ROW 31 : ... .. . ... : ... .. . ... ... : ... .. . ... : ... .. . ... : ... .. . ...
ROW 32 : ... .. . ... : ... .. . ... ... : ... .. . ... : ... .. . ... : ... .. . ...
ROW 33 : ... .. . ... : ... .. . ... ... : ... .. . ... : ... .. . ... : ... .. . ...
ROW 34 : ... .. . ... : ... .. . ... ... : ... .. . ... : ... .. . ... : ... .. . ...
ROW 35 : ... .. . ... : ... .. . ... ... : ... .. . ... : ... .. . ... : ... .. . ...
ROW 36 : ... .. . ... : ... .. . ... ... : ... .. . ... : ... .. . ... : ... .. . ...
ROW 37 : ... .. . ... : ... .. . ... ... : ... .. . ... : ... .. . ... : ... .. . ...
ROW 38 : ... .. . ... : ... .. . ... ... : ... .. . ... : ... .. . ... : ... .. . ...
ROW 39 : ... .. . ... : ... .. . ... ... : ... .. . ... : ... .. . ... : ... .. . ...
ROW 3A : ... .. . ... : ... .. . ... ... : ... .. . ... : ... .. . ... : ... .. . ...
ROW 3B : ... .. . ... : ... .. . ... ... : ... .. . ... : ... .. . ... : ... .. . ...
ROW 3C : ... .. . ... : ... .. . ... ... : ... .. . ... : ... .. . ... : ... .. . ...
ROW 3D : ... .. . ... : ... .. . ... ... : ... .. . ... : ... .. . ... : ... .. . ...
ROW 3E : ... .. . ... : ... .. . ... ... : ... .. . ... : ... .. . ... : ... .. . ...
ROW 3F : ... .. . C00 : ... .. . ... ... : ... .. . ... : ... .. . ... : ... .. . ...

TRACK  64   5 150 "mus_totaka"
COLUMNS : 3 1 1 1 1

ORDER 00 : 00 00 00 00 00
ORDER 01 : 01 01 01 01 01

PATTERN 00
ROW 00 : C-3 03 F V02 ... ... : --- 09 . ... : --- .. . ... : --- .. . ... : --- .. . ...
ROW 01 : ... .. . ... ... ... : ... .. . ... : ... .. . ... : ... .. . ... : ... .. . ...
ROW 02 : ... .. . ... ... ... : ... .. . ... : ... .. . ... : ... .. . ... : ... .. . ...
ROW 03 : ... .. . ... ... ... : ... .. . ... : ... .. . ... : ... .. . ... : ... .. . ...
ROW 04 : ... .. . ... ... ... : ... .. . ... : ... .. . ... : ... .. . ... : ... .. . ...
ROW 05 : C-3 03 F V02 G04 S04 : ... .. . ... : ... .. . ... : ... .. . ... : ... .. . ...
ROW 06 : D-3 03 F V02 G05 S03 : ... .. . ... : ... .. . ... : ... .. . ... : ... .. . ...
ROW 07 : ... .. . ... ... ... : ... .. . ... : ... .. . ... : ... .. . ... : ... .. . ...
ROW 08 : E-3 03 F V02 ... ... : ... .. . ... : ... .. . ... : ... .. . ... : ... .. . ...
ROW 09 : ... .. . ... ... ... : ... .. . ... : ... .. . ... : ... .. . ... : ... .. . ...
ROW 0A : ... .. . ... ... ... : ... .. . ... : ... .. . ... : ... .. . ... : ... .. . ...
ROW 0B : ... .. . ... ... ... : ... .. . ... : ... .. . ... : ... .. . ... : ... .. . ...
ROW 0C : ... .. . ... ... ... : ... .. . ... : ... .. . ... : ... .. . ... : ... .. . ...
ROW 0D : D-3 03 F V02 G04 ... : ... .. . ... : ... .. . ... : ... .. . ... : ... .. . ...
ROW 0E : ... .. . ... ... ... : ... .. . ... : ... .. . ... : ... .. . ... : ... .. . ...
ROW 0F : ... .. . ... ... ... : ... .. . ... : ... .. . ... : ... .. . ... : ... .. . ...
ROW 10 : C-3 03 F V02 ... ... : ... .. . ... : ... .. . ... : ... .. . ... : ... .. . ...
ROW 11 : ... .. . ... ... ... : ... .. . ... : ... .. . ... : ... .. . ... : ... .. . ...
ROW 12 : ... .. . ... ... ... : ... .. . ... : ... .. . ... : ... .. . ... : ... .. . ...
ROW 13 : ... .. . ... ... ... : ... .. . ... : ... .. . ... : ... .. . ... : ... .. . ...
ROW 14 : ... .. . ... ... ... : ... .. . ... : ... .. . ... : ... .. . ... : ... .. . ...
ROW 15 : ... .. . ... ... ... : ... .. . ... : ... .. . ... : ... .. . ... : ... .. . ...
ROW 16 : ... .. . ... ... ... : ... .. . ... : ... .. . ... : ... .. . ... : ... .. . ...
ROW 17 : ... .. . ... ... ... : ... .. . ... : ... .. . ... : ... .. . ... : ... .. . ...
ROW 18 : G-3 03 F V02 ... ... : ... .. . ... : ... .. . ... : ... .. . ... : ... .. . ...
ROW 19 : ... .. . ... ... ... : ... .. . ... : ... .. . ... : ... .. . ... : ... .. . ...
ROW 1A : ... .. . ... ... ... : ... .. . ... : ... .. . ... : ... .. . ... : ... .. . ...
ROW 1B : ... .. . ... ... ... : ... .. . ... : ... .. . ... : ... .. . ... : ... .. . ...
ROW 1C : ... .. . ... ... ... : ... .. . ... : ... .. . ... : ... .. . ... : ... .. . ...
ROW 1D : ... .. . ... ... ... : ... .. . ... : ... .. . ... : ... .. . ... : ... .. . ...
ROW 1E : ... .. . ... ... ... : ... .. . ... : ... .. . ... : ... .. . ... : ... .. . ...
ROW 1F : ... .. . ... ... ... : ... .. . ... : ... .. . ... : ... .. . ... : ... .. . ...
ROW 20 : E-3 03 F V02 ... ... : ... .. . ... : ... .. . ... : ... .. . ... : ... .. . ...
ROW 21 : ... .. . ... ... ... : ... .. . ... : ... .. . ... : ... .. . ... : ... .. . ...
ROW 22 : ... .. . ... ... ... : ... .. . ... : ... .. . ... : ... .. . ... : ... .. . ...
ROW 23 : ... .. . ... ... ... : ... .. . ... : ... .. . ... : ... .. . ... : ... .. . ...
ROW 24 : ... .. . ... ... ... : ... .. . ... : ... .. . ... : ... .. . ... : ... .. . ...
ROW 25 : ... .. . ... ... ... : ... .. . ... : ... .. . ... : ... .. . ... : ... .. . ...
ROW 26 : ... .. . ... ... ... : ... .. . ... : ... .. . ... : ... .. . ... : ... .. . ...
ROW 27 : ... .. . ... ... ... : ... .. . ... : ... .. . ... : ... .. . ... : ... .. . ...
ROW 28 : C-4 03 F V02 ... ... : ... .. . ... : ... .. . ... : ... .. . ... : ... .. . ...
ROW 29 : ... .. . ... ... ... : ... .. . ... : ... .. . ... : ... .. . ... : ... .. . ...
ROW 2A : ... .. . ... ... ... : ... .. . ... : ... .. . ... : ... .. . ... : ... .. . ...
ROW 2B : ... .. . ... ... ... : ... .. . ... : ... .. . ... : ... .. . ... : ... .. . ...
ROW 2C : ... .. . ... ... ... : ... .. . ... : ... .. . ... : ... .. . ... : ... .. . ...
ROW 2D : ... .. . ... ... ... : ... .. . ... : ... .. . ... : ... .. . ... : ... .. . ...
ROW 2E : ... .. . ... ... ... : ... .. . ... : ... .. . ... : ... .. . ... : ... .. . ...
ROW 2F : ... .. . ... ... ... : ... .. . ... : ... .. . ... : ... .. . ... : ... .. . ...
ROW 30 : G-3 03 F V02 ... ... : ... .. . ... : ... .. . ... : ... .. . ... : ... .. . ...
ROW 31 : ... .. . ... ... ... : ... .. . ... : ... .. . ... : ... .. . ... : ... .. . ...
ROW 32 : ... .. . ... ... ... : ... .. . ... : ... .. . ... : ... .. . ... : ... .. . ...
ROW 33 : ... .. . ... ... ... : ... .. . ... : ... .. . ... : ... .. . ... : ... .. . ...
ROW 34 : ... .. . ... ... ... : ... .. . ... : ... .. . ... : ... .. . ... : ... .. . ...
ROW 35 : ... .. . ... ... ... : ... .. . ... : ... .. . ... : ... .. . ... : ... .. . ...
ROW 36 : ... .. . ... ... ... : ... .. . ... : ... .. . ... : ... .. . ... : ... .. . ...
ROW 37 : ... .. . ... ... ... : ... .. . ... : ... .. . ... : ... .. . ... : ... .. . ...
ROW 38 : ... .. . ... ... ... : ... .. . ... : ... .. . ... : ... .. . ... : ... .. . ...
ROW 39 : ... .. . ... ... ... : ... .. . ... : ... .. . ... : ... .. . ... : ... .. . ...
ROW 3A : ... .. . ... ... ... : ... .. . ... : ... .. . ... : ... .. . ... : ... .. . ...
ROW 3B : ... .. . ... ... ... : ... .. . ... : ... .. . ... : ... .. . ... : ... .. . ...
ROW 3C : ... .. . ... ... ... : ... .. . ... : ... .. . ... : ... .. . ... : ... .. . ...
ROW 3D : ... .. . ... ... ... : ... .. . ... : ... .. . ... : ... .. . ... : ... .. . ...
ROW 3E : ... .. . ... ... ... : ... .. . ... : ... .. . ... : ... .. . ... : ... .. . ...
ROW 3F : ... .. . ... ... ... : ... .. . ... : ... .. . ... : ... .. . ... : ... .. . ...

PATTERN 01
ROW 00 : G-3 03 F V02 ... ... : --- .. . ... : --- .. . ... : --- .. . ... : --- .. . ...
ROW 01 : ... .. . ... ... ... : ... .. . ... : ... .. . ... : ... .. . ... : ... .. . ...
ROW 02 : ... .. . ... ... ... : ... .. . ... : ... .. . ... : ... .. . ... : ... .. . ...
ROW 03 : ... .. . ... ... ... : ... .. . ... : ... .. . ... : ... .. . ... : ... .. . ...
ROW 04 : ... .. . ... ... ... : ... .. . ... : ... .. . ... : ... .. . ... : ... .. . ...
ROW 05 : G-3 03 F V02 G04 S04 : ... .. . ... : ... .. . ... : ... .. . ... : ... .. . ...
ROW 06 : G#3 03 F V02 G05 S03 : ... .. . ... : ... .. . ... : ... .. . ... : ... .. . ...
ROW 07 : ... .. . ... ... ... : ... .. . ... : ... .. . ... : ... .. . ... : ... .. . ...
ROW 08 : G-3 03 F V02 ... ... : ... .. . ... : ... .. . ... : ... .. . ... : ... .. . ...
ROW 09 : ... .. . ... ... ... : ... .. . ... : ... .. . ... : ... .. . ... : ... .. . ...
ROW 0A : ... .. . ... ... ... : ... .. . ... : ... .. . ... : ... .. . ... : ... .. . ...
ROW 0B : ... .. . ... ... ... : ... .. . ... : ... .. . ... : ... .. . ... : ... .. . ...
ROW 0C : ... .. . ... ... ... : ... .. . ... : ... .. . ... : ... .. . ... : ... .. . ...
ROW 0D : F#3 03 F V02 G04 ... : ... .. . ... : ... .. . ... : ... .. . ... : ... .. . ...
ROW 0E : ... .. . ... ... ... : ... .. . ... : ... .. . ... : ... .. . ... : ... .. . ...
ROW 0F : ... .. . ... ... ... : ... .. . ... : ... .. . ... : ... .. . ... : ... .. . ...
ROW 10 : D#3 03 F V02 ... ... : ... .. . ... : ... .. . ... : ... .. . ... : ... .. . ...
ROW 11 : ... .. . ... ... ... : ... .. . ... : ... .. . ... : ... .. . ... : ... .. . ...
ROW 12 : ... .. . ... ... ... : ... .. . ... : ... .. . ... : ... .. . ... : ... .. . ...
ROW 13 : ... .. . ... ... ... : ... .. . ... : ... .. . ... : ... .. . ... : ... .. . ...
ROW 14 : ... .. . ... ... ... : ... .. . ... : ... .. . ... : ... .. . ... : ... .. . ...
ROW 15 : ... .. . ... ... ... : ... .. . ... : ... .. . ... : ... .. . ... : ... .. . ...
ROW 16 : ... .. . ... ... ... : ... .. . ... : ... .. . ... : ... .. . ... : ... .. . ...
ROW 17 : ... .. . ... ... ... : ... .. . ... : ... .. . ... : ... .. . ... : ... .. . ...
ROW 18 : ... .. . ... ... ... : ... .. . ... : ... .. . ... : ... .. . ... : ... .. . ...
ROW 19 : ... .. . ... ... ... : ... .. . ... : ... .. . ... : ... .. . ... : ... .. . ...
ROW 1A : ... .. . ... ... ... : ... .. . ... : ... .. . ... : ... .. . ... : ... .. . ...
ROW 1B : ... .. . ... ... ... : ... .. . ... : ... .. . ... : ... .. . ... : ... .. . ...
ROW 1C : ... .. . ... ... ... : ... .. . ... : ... .. . ... : ... .. . ... : ... .. . ...
ROW 1D : ... .. . ... ... ... : ... .. . ... : ... .. . ... : ... .. . ... : ... .. . ...
ROW 1E : ... .. . ... ... ... : ... .. . ... : ... .. . ... : ... .. . ... : ... .. . ...
ROW 1F : ... .. . ... ... ... : ... .. . ... : ... .. . ... : ... .. . ... : ... .. . ...
ROW 20 : D-3 03 F V02 F06 ... : ... .. . ... : ... .. . ... : ... .. . ... : ... .. . ...
ROW 21 : ... .. . ... ... ... : ... .. . ... : ... .. . ... : ... .. . ... : ... .. . ...
ROW 22 : ... .. . ... ... ... : ... .. . ... : ... .. . ... : ... .. . ... : ... .. . ...
ROW 23 : ... .. . ... ... ... : ... .. . ... : ... .. . ... : ... .. . ... : ... .. . ...
ROW 24 : ... .. . ... ... ... : ... .. . ... : ... .. . ... : ... .. . ... : ... .. . ...
ROW 25 : ... .. . ... ... ... : ... .. . ... : ... .. . ... : ... .. . ... : ... .. . ...
ROW 26 : ... .. . ... ... ... : ... .. . ... : ... .. . ... : ... .. . ... : ... .. . ...
ROW 27 : ... .. . ... ... ... : ... .. . ... : ... .. . ... : ... .. . ... : ... .. . ...
ROW 28 : ... .. . ... ... ... : ... .. . ... : ... .. . ... : ... .. . ... : ... .. . ...
ROW 29 : ... .. . ... ... ... : ... .. . ... : ... .. . ... : ... .. . ... : ... .. . ...
ROW 2A : ... .. . ... ... ... : ... .. . ... : ... .. . ... : ... .. . ... : ... .. . ...
ROW 2B : ... .. . ... ... ... : ... .. . ... : ... .. . ... : ... .. . ... : ... .. . ...
ROW 2C : G-3 03 F V02 F07 ... : ... .. . ... : ... .. . ... : ... .. . ... : ... .. . ...
ROW 2D : ... .. . ... ... ... : ... .. . ... : ... .. . ... : ... .. . ... : ... .. . ...
ROW 2E : ... .. . ... ... ... : ... .. . ... : ... .. . ... : ... .. . ... : ... .. . ...
ROW 2F : ... .. . ... ... ... : ... .. . ... : ... .. . ... : ... .. . ... : ... .. . ...
ROW 30 : ... .. . ... ... ... : ... .. . ... : ... .. . ... : ... .. . ... : ... .. . ...
ROW 31 : ... .. . ... ... ... : ... .. . ... : ... .. . ... : ... .. . ... : ... .. . ...
ROW 32 : ... .. . ... ... ... : ... .. . ... : ... .. . ... : ... .. . ... : ... .. . ...
ROW 33 : ... .. . ... ... ... : ... .. . ... : ... .. . ... : ... .. . ... : ... .. . ...
ROW 34 : ... .. . ... ... ... : ... .. . ... : ... .. . ... : ... .. . ... : ... .. . ...
ROW 35 : ... .. . ... ... ... : ... .. . ... : ... .. . ... : ... .. . ... : ... .. . ...
ROW 36 : ... .. . ... ... ... : ... .. . ... : ... .. . ... : ... .. . ... : ... .. . ...
ROW 37 : ... .. . ... ... ... : ... .. . ... : ... .. . ... : ... .. . ... : ... .. . ...
ROW 38 : C-3 03 F V02 ... ... : ... .. . ... : ... .. . ... : ... .. . ... : ... .. . ...
ROW 39 : ... .. . ... ... ... : ... .. . ... : ... .. . ... : ... .. . ... : ... .. . ...
ROW 3A : ... .. . ... ... ... : ... .. . ... : ... .. . ... : ... .. . ... : ... .. . ...
ROW 3B : ... .. . ... ... ... : ... .. . ... : ... .. . ... : ... .. . ... : ... .. . ...
ROW 3C : ... .. . ... ... ... : ... .. . ... : ... .. . ... : ... .. . ... : ... .. . ...
ROW 3D : ... .. . ... ... ... : ... .. . ... : ... .. . ... : ... .. . ... : ... .. . ...
ROW 3E : ... .. . ... ... ... : ... .. . ... : ... .. . ... : ... .. . ... : ... .. . ...
ROW 3F : ... .. . ... C00 ... : ... .. . C00 : ... .. . C00 : ... .. . C00 : ... .. . C00

TRACK  64   6 150 "sfx_null"
COLUMNS : 1 1 1 1 1

ORDER 00 : 00 00 00 00 00

PATTERN 00
ROW 00 : ... .. . C00 : ... .. . C00 : ... .. . C00 : ... .. . C00 : ... .. . C00
ROW 01 : ... .. . ... : ... .. . ... : ... .. . ... : ... .. . ... : ... .. . ...
ROW 02 : ... .. . ... : ... .. . ... : ... .. . ... : ... .. . ... : ... .. . ...
ROW 03 : ... .. . ... : ... .. . ... : ... .. . ... : ... .. . ... : ... .. . ...
ROW 04 : ... .. . ... : ... .. . ... : ... .. . ... : ... .. . ... : ... .. . ...
ROW 05 : ... .. . ... : ... .. . ... : ... .. . ... : ... .. . ... : ... .. . ...
ROW 06 : ... .. . ... : ... .. . ... : ... .. . ... : ... .. . ... : ... .. . ...
ROW 07 : ... .. . ... : ... .. . ... : ... .. . ... : ... .. . ... : ... .. . ...
ROW 08 : ... .. . ... : ... .. . ... : ... .. . ... : ... .. . ... : ... .. . ...
ROW 09 : ... .. . ... : ... .. . ... : ... .. . ... : ... .. . ... : ... .. . ...
ROW 0A : ... .. . ... : ... .. . ... : ... .. . ... : ... .. . ... : ... .. . ...
ROW 0B : ... .. . ... : ... .. . ... : ... .. . ... : ... .. . ... : ... .. . ...
ROW 0C : ... .. . ... : ... .. . ... : ... .. . ... : ... .. . ... : ... .. . ...
ROW 0D : ... .. . ... : ... .. . ... : ... .. . ... : ... .. . ... : ... .. . ...
ROW 0E : ... .. . ... : ... .. . ... : ... .. . ... : ... .. . ... : ... .. . ...
ROW 0F : ... .. . ... : ... .. . ... : ... .. . ... : ... .. . ... : ... .. . ...
ROW 10 : ... .. . ... : ... .. . ... : ... .. . ... : ... .. . ... : ... .. . ...
ROW 11 : ... .. . ... : ... .. . ... : ... .. . ... : ... .. . ... : ... .. . ...
ROW 12 : ... .. . ... : ... .. . ... : ... .. . ... : ... .. . ... : ... .. . ...
ROW 13 : ... .. . ... : ... .. . ... : ... .. . ... : ... .. . ... : ... .. . ...
ROW 14 : ... .. . ... : ... .. . ... : ... .. . ... : ... .. . ... : ... .. . ...
ROW 15 : ... .. . ... : ... .. . ... : ... .. . ... : ... .. . ... : ... .. . ...
ROW 16 : ... .. . ... : ... .. . ... : ... .. . ... : ... .. . ... : ... .. . ...
ROW 17 : ... .. . ... : ... .. . ... : ... .. . ... : ... .. . ... : ... .. . ...
ROW 18 : ... .. . ... : ... .. . ... : ... .. . ... : ... .. . ... : ... .. . ...
ROW 19 : ... .. . ... : ... .. . ... : ... .. . ... : ... .. . ... : ... .. . ...
ROW 1A : ... .. . ... : ... .. . ... : ... .. . ... : ... .. . ... : ... .. . ...
ROW 1B : ... .. . ... : ... .. . ... : ... .. . ... : ... .. . ... : ... .. . ...
ROW 1C : ... .. . ... : ... .. . ... : ... .. . ... : ... .. . ... : ... .. . ...
ROW 1D : ... .. . ... : ... .. . ... : ... .. . ... : ... .. . ... : ... .. . ...
ROW 1E : ... .. . ... : ... .. . ... : ... .. . ... : ... .. . ... : ... .. . ...
ROW 1F : ... .. . ... : ... .. . ... : ... .. . ... : ... .. . ... : ... .. . ...
ROW 20 : ... .. . ... : ... .. . ... : ... .. . ... : ... .. . ... : ... .. . ...
ROW 21 : ... .. . ... : ... .. . ... : ... .. . ... : ... .. . ... : ... .. . ...
ROW 22 : ... .. . ... : ... .. . ... : ... .. . ... : ... .. . ... : ... .. . ...
ROW 23 : ... .. . ... : ... .. . ... : ... .. . ... : ... .. . ... : ... .. . ...
ROW 24 : ... .. . ... : ... .. . ... : ... .. . ... : ... .. . ... : ... .. . ...
ROW 25 : ... .. . ... : ... .. . ... : ... .. . ... : ... .. . ... : ... .. . ...
ROW 26 : ... .. . ... : ... .. . ... : ... .. . ... : ... .. . ... : ... .. . ...
ROW 27 : ... .. . ... : ... .. . ... : ... .. . ... : ... .. . ... : ... .. . ...
ROW 28 : ... .. . ... : ... .. . ... : ... .. . ... : ... .. . ... : ... .. . ...
ROW 29 : ... .. . ... : ... .. . ... : ... .. . ... : ... .. . ... : ... .. . ...
ROW 2A : ... .. . ... : ... .. . ... : ... .. . ... : ... .. . ... : ... .. . ...
ROW 2B : ... .. . ... : ... .. . ... : ... .. . ... : ... .. . ... : ... .. . ...
ROW 2C : ... .. . ... : ... .. . ... : ... .. . ... : ... .. . ... : ... .. . ...
ROW 2D : ... .. . ... : ... .. . ... : ... .. . ... : ... .. . ... : ... .. . ...
ROW 2E : ... .. . ... : ... .. . ... : ... .. . ... : ... .. . ... : ... .. . ...
ROW 2F : ... .. . ... : ... .. . ... : ... .. . ... : ... .. . ... : ... .. . ...
ROW 30 : ... .. . ... : ... .. . ... : ... .. . ... : ... .. . ... : ... .. . ...
ROW 31 : ... .. . ... : ... .. . ... : ... .. . ... : ... .. . ... : ... .. . ...
ROW 32 : ... .. . ... : ... .. . ... : ... .. . ... : ... .. . ... : ... .. . ...
ROW 33 : ... .. . ... : ... .. . ... : ... .. . ... : ... .. . ... : ... .. . ...
ROW 34 : ... .. . ... : ... .. . ... : ... .. . ... : ... .. . ... : ... .. . ...
ROW 35 : ... .. . ... : ... .. . ... : ... .. . ... : ... .. . ... : ... .. . ...
ROW 36 : ... .. . ... : ... .. . ... : ... .. . ... : ... .. . ... : ... .. . ...
ROW 37 : ... .. . ... : ... .. . ... : ... .. . ... : ... .. . ... : ... .. . ...
ROW 38 : ... .. . ... : ... .. . ... : ... .. . ... : ... .. . ... : ... .. . ...
ROW 39 : ... .. . ... : ... .. . ... : ... .. . ... : ... .. . ... : ... .. . ...
ROW 3A : ... .. . ... : ... .. . ... : ... .. . ... : ... .. . ... : ... .. . ...
ROW 3B : ... .. . ... : ... .. . ... : ... .. . ... : ... .. . ... : ... .. . ...
ROW 3C : ... .. . ... : ... .. . ... : ... .. . ... : ... .. . ... : ... .. . ...
ROW 3D : ... .. . ... : ... .. . ... : ... .. . ... : ... .. . ... : ... .. . ...
ROW 3E : ... .. . ... : ... .. . ... : ... .. . ... : ... .. . ... : ... .. . ...
ROW 3F : ... .. . ... : ... .. . ... : ... .. . ... : ... .. . ... : ... .. . ...

# End of export
